<?xml version="1.0" encoding="UTF-8"?><svg xmlns="http://www.w3.org/2000/svg" viewBox="0 0 1366 450"><defs><style>.cls-1{fill:#fff;}</style></defs><g id="BG"><rect x="-4269.4" y="-5501.91" width="13818.27" height="9075.32"/></g><g id="Layer_1"><g><path class="cls-1" d="M1291.01,129.53c-9.56-7.41-27.23-10.29-35.29-12.21-27.09-6.45-56.44-7.53-82.85,2.4-29.01,10.91-52.39,34.82-64.75,63.25-7.98,18.37-11.6,39.01-7.74,58.67,5.65,28.76,27.58,53.21,54.75,64.2,33.96,13.74,71.45,6.71,102.17-11.57,30.9-18.39,55.59-46.82,71.43-78.98,13.9-28.23,22.71-58.54,24.85-90l-44.64,21.81c-.32,.16-.66,.34-.82,.66-.16,.34-.07,.74,.02,1.1,0,7.88,4.44,16.51,6.19,24.18,2.05,9.03,3.41,18.25,3.8,27.49s1.73,18.66,1.35,27.99c-.29,12.67-1.43,25.3-3.05,37.87-1.53,12.97-6.3,25.78-10.8,37.98-5.08,13.77-11.48,26.42-19.52,38.69-17.7,27.03-46.32,41.58-74.91,54.43-36.33,16.32-80.25,8.19-114.35-10.02-15.43-8.24-31.6-19.43-39.25-35.73-3.33-7.1-3.96-17.92-12.83-20.59-6.56-1.98-14.88,.49-20.47,4.07-9.5,6.09-20.75,18.3-17.27,30.76,9.17,32.83,37.76,54.44,67.77,67.42,17.5,7.57,35.97,13.45,54.97,15.62,23.83,2.72,47.54-.43,70.41-7.23,41.54-12.35,79.91-37.74,108-70.63,25.85-30.27,43.68-67.98,51.81-106.87,10-47.8,7.35-97.21-7.17-143.84-3.39-10.9-17.23-8.68-24.96-4.89-10.17,4.98-20.36,15.39-20.88,27.37-.19,4.36-.74,8.72-1.34,13.03-5,35.66-20.95,77.28-51.74,98.41-6.19,4.25-12.96,7.64-20.1,9.97-17.64,5.78-37.17,4.7-53.83-3.57-15.03-7.46-27.32-20.89-31.76-37.26-4.82-17.77-3.21-39.84,9.77-53.93,12.84-13.94,32.96-16.33,50.83-14.06,9.33,1.18,18.52,3.6,27.31,6.92,9.35,3.53,18.07,8.55,28.27,9.32,14.91,1.14,29.84-13.72,32.73-27.7,1.28-6.22-1.46-10.93-6.14-14.56Z"/><path class="cls-1" d="M727.35,450l-25.69-34.96,53.29-39.16-12.55-67.8,2.1-13.99,34.61-66.25-11.09-75.9,45.95-37.63,5.95,4.33,27.74-1.67,23.12,25.55,20.16,25.93-10.79,53.85,38.94,39.09,5.02,16.04,3.77-12.49,38.27-38.33-9.19-54,9.31-21.67,38.27-25.63-1.22-46.24,15.58-21.39,46.98-13.79,25.15-42.07,36.02-1.82,.09,.12,39.43,3.89,28.23,31.16-24.98,23.6-28.07-7.79-30.14,.97-12.86,21.51-12.51,9.69-39.12,11.48,1.09,41.5-9.61,18.59-36.52,24.46,8.72,51.19-6.03,18.97-37.97,38.04,10.62,52.75-1.68,13.61-19.92,41.81-34.85,6.08-44.24-43.84-6.08-19.23,9.76-54.54-39.15-39.29-5.9-19.57,8.13-40.58-7.77-.4-10.74-21.25-9.49,13.69,7.59,51.92-2.24,13.18-34.4,65.84,13.66,73.82-8.49,21.43-64.26,47.21Zm188-115.03l14.44,14.31,3.67-7.7-10.21-50.75-7.9,44.14Z"/><g><g><g><rect class="cls-1" x="573.19" y="299.15" width="4.51" height="5.72"/><path class="cls-1" d="M579.34,306.51h-7.79v-9h7.79v9Zm-4.51-3.28h1.22v-2.43h-1.22v2.43Z"/></g><g><rect class="cls-1" x="553.62" y="294.15" width="4.51" height="5.72"/><path class="cls-1" d="M559.76,301.51h-7.79v-9h7.79v9Zm-4.51-3.28h1.22v-2.43h-1.22v2.43Z"/></g><g><rect class="cls-1" x="554.27" y="304.99" width="4.51" height="5.72"/><path class="cls-1" d="M560.42,312.35h-7.79v-9h7.79v9Zm-4.51-3.28h1.22v-2.43h-1.22v2.43Z"/></g><g><rect class="cls-1" x="551" y="316.04" width="4.51" height="5.72"/><path class="cls-1" d="M557.15,323.4h-7.79v-9h7.79v9Zm-4.51-3.28h1.22v-2.43h-1.22v2.43Z"/></g><g><rect class="cls-1" x="537.97" y="314.93" width="4.51" height="5.72"/><path class="cls-1" d="M544.12,322.29h-7.79v-9h7.79v9Zm-4.51-3.28h1.22v-2.43h-1.22v2.43Z"/></g><g><rect class="cls-1" x="549.65" y="333.49" width="4.51" height="5.72"/><path class="cls-1" d="M555.8,340.85h-7.79v-9h7.79v9Zm-4.51-3.28h1.22v-2.43h-1.22v2.43Z"/></g><g><rect class="cls-1" x="541.81" y="343.9" width="4.51" height="5.72"/><path class="cls-1" d="M547.96,351.25h-7.79v-9h7.79v9Zm-4.51-3.28h1.22v-2.43h-1.22v2.43Z"/></g><g><rect class="cls-1" x="525.11" y="336.16" width="4.51" height="5.72"/><path class="cls-1" d="M531.26,343.52h-7.79v-9h7.79v9Zm-4.51-3.28h1.22v-2.43h-1.22v2.43Z"/></g><g><rect class="cls-1" x="533.13" y="361.69" width="4.51" height="5.72"/><path class="cls-1" d="M539.28,369.05h-7.79v-9h7.79v9Zm-4.51-3.28h1.22v-2.43h-1.22v2.43Z"/></g><g><rect class="cls-1" x="523.07" y="362.19" width="4.51" height="5.72"/><path class="cls-1" d="M529.21,369.55h-7.79v-9h7.79v9Zm-4.51-3.28h1.22v-2.43h-1.22v2.43Z"/></g><g><rect class="cls-1" x="506.51" y="358.81" width="4.51" height="5.72"/><path class="cls-1" d="M512.66,366.16h-7.79v-9h7.79v9Zm-4.51-3.28h1.22v-2.43h-1.22v2.43Z"/></g><g><rect class="cls-1" x="510.36" y="380.44" width="4.51" height="5.72"/><path class="cls-1" d="M516.51,387.8h-7.79v-9h7.79v9Zm-4.51-3.28h1.22v-2.43h-1.22v2.43Z"/></g><g><rect class="cls-1" x="509.32" y="401.49" width="4.51" height="5.72"/><path class="cls-1" d="M515.47,408.84h-7.79v-9h7.79v9Zm-4.51-3.28h1.22v-2.43h-1.22v2.43Z"/></g><g><rect class="cls-1" x="493.2" y="385.16" width="4.51" height="5.72"/><path class="cls-1" d="M499.35,392.52h-7.79v-9h7.79v9Zm-4.51-3.28h1.22v-2.43h-1.22v2.43Z"/></g><g><rect class="cls-1" x="493.77" y="406.77" width="4.51" height="5.72"/><path class="cls-1" d="M499.92,414.13h-7.79v-9h7.79v9Zm-4.51-3.28h1.22v-2.43h-1.22v2.43Z"/></g><g><rect class="cls-1" x="482.86" y="398.94" width="4.51" height="5.72"/><path class="cls-1" d="M489.01,406.29h-7.79v-9h7.79v9Zm-4.51-3.28h1.22v-2.43h-1.22v2.43Z"/></g><g><rect class="cls-1" x="478.9" y="405.67" width="4.51" height="5.72"/><path class="cls-1" d="M485.05,413.03h-7.79v-9h7.79v9Zm-4.51-3.28h1.22v-2.43h-1.22v2.43Z"/></g><g><rect class="cls-1" x="465.76" y="402.9" width="4.51" height="5.72"/><path class="cls-1" d="M471.91,410.26h-7.79v-9h7.79v9Zm-4.51-3.28h1.22v-2.43h-1.22v2.43Z"/></g><g><rect class="cls-1" x="458.93" y="401.68" width="4.51" height="5.72"/><path class="cls-1" d="M465.08,409.04h-7.79v-9h7.79v9Zm-4.51-3.28h1.22v-2.43h-1.22v2.43Z"/></g><g><rect class="cls-1" x="454.41" y="430.7" width="4.51" height="5.72"/><path class="cls-1" d="M460.56,438.05h-7.79v-9h7.79v9Zm-4.51-3.28h1.22v-2.43h-1.22v2.43Z"/></g><g><rect class="cls-1" x="443.47" y="434.38" width="4.51" height="5.72"/><path class="cls-1" d="M449.62,441.74h-7.79v-9h7.79v9Zm-4.51-3.28h1.22v-2.43h-1.22v2.43Z"/></g><g><rect class="cls-1" x="434.43" y="421.25" width="4.51" height="5.72"/><path class="cls-1" d="M440.58,428.61h-7.79v-9h7.79v9Zm-4.51-3.28h1.22v-2.43h-1.22v2.43Z"/></g><g><rect class="cls-1" x="424.02" y="417.23" width="4.51" height="5.72"/><path class="cls-1" d="M430.17,424.59h-7.79v-9h7.79v9Zm-4.51-3.28h1.22v-2.43h-1.22v2.43Z"/></g><g><rect class="cls-1" x="416.44" y="430.15" width="4.51" height="5.72"/><path class="cls-1" d="M422.59,437.51h-7.79v-9h7.79v9Zm-4.51-3.28h1.22v-2.43h-1.22v2.43Z"/></g><g><rect class="cls-1" x="406.85" y="420.62" width="4.51" height="5.72"/><path class="cls-1" d="M413,427.98h-7.79v-9h7.79v9Zm-4.51-3.28h1.22v-2.43h-1.22v2.43Z"/></g><g><rect class="cls-1" x="393.49" y="428.83" width="4.51" height="5.72"/><path class="cls-1" d="M399.64,436.19h-7.79v-9h7.79v9Zm-4.51-3.28h1.22v-2.43h-1.22v2.43Z"/></g><g><rect class="cls-1" x="369.41" y="416.5" width="4.51" height="5.72"/><path class="cls-1" d="M375.56,423.86h-7.79v-9h7.79v9Zm-4.51-3.28h1.22v-2.43h-1.22v2.43Z"/></g><g><rect class="cls-1" x="366.9" y="415.58" width="4.51" height="5.72"/><path class="cls-1" d="M373.05,422.93h-7.79v-9h7.79v9Zm-4.51-3.28h1.22v-2.43h-1.22v2.43Z"/></g><g><rect class="cls-1" x="349.79" y="431.79" width="4.51" height="5.72"/><path class="cls-1" d="M355.94,439.14h-7.79v-9h7.79v9Zm-4.51-3.28h1.22v-2.43h-1.22v2.43Z"/></g><g><rect class="cls-1" x="341.02" y="415.51" width="4.51" height="5.72"/><path class="cls-1" d="M347.17,422.86h-7.79v-9h7.79v9Zm-4.51-3.28h1.22v-2.43h-1.22v2.43Z"/></g><g><rect class="cls-1" x="334.84" y="413.85" width="4.51" height="5.72"/><path class="cls-1" d="M340.99,421.2h-7.79v-9h7.79v9Zm-4.51-3.28h1.22v-2.43h-1.22v2.43Z"/></g><g><rect class="cls-1" x="325.56" y="409.35" width="4.51" height="5.72"/><path class="cls-1" d="M331.71,416.71h-7.79v-9h7.79v9Zm-4.51-3.28h1.22v-2.43h-1.22v2.43Z"/></g><g><rect class="cls-1" x="317.85" y="412.51" width="4.51" height="5.72"/><path class="cls-1" d="M324,419.86h-7.79v-9h7.79v9Zm-4.51-3.28h1.22v-2.43h-1.22v2.43Z"/></g><g><rect class="cls-1" x="322.78" y="381.39" width="4.51" height="5.72"/><path class="cls-1" d="M328.93,388.75h-7.79v-9h7.79v9Zm-4.51-3.28h1.22v-2.43h-1.22v2.43Z"/></g><g><rect class="cls-1" x="312.47" y="386.32" width="4.51" height="5.72"/><path class="cls-1" d="M318.62,393.68h-7.79v-9h7.79v9Zm-4.51-3.28h1.22v-2.43h-1.22v2.43Z"/></g><g><rect class="cls-1" x="312.39" y="377.41" width="4.51" height="5.72"/><path class="cls-1" d="M318.54,384.77h-7.79v-9h7.79v9Zm-4.51-3.28h1.22v-2.43h-1.22v2.43Z"/></g><g><rect class="cls-1" x="299.82" y="372.38" width="4.51" height="5.72"/><path class="cls-1" d="M305.97,379.74h-7.79v-9h7.79v9Zm-4.51-3.28h1.22v-2.43h-1.22v2.43Z"/></g><g><rect class="cls-1" x="310.24" y="360.17" width="4.51" height="5.72"/><path class="cls-1" d="M316.39,367.52h-7.79v-9h7.79v9Zm-4.51-3.28h1.22v-2.43h-1.22v2.43Z"/></g><g><rect class="cls-1" x="287.19" y="358.63" width="4.51" height="5.72"/><path class="cls-1" d="M293.34,365.99h-7.79v-9h7.79v9Zm-4.51-3.28h1.22v-2.43h-1.22v2.43Z"/></g><g><rect class="cls-1" x="285.98" y="346.91" width="4.51" height="5.72"/><path class="cls-1" d="M292.13,354.27h-7.79v-9h7.79v9Zm-4.51-3.28h1.22v-2.43h-1.22v2.43Z"/></g><g><rect class="cls-1" x="286.91" y="339.28" width="4.51" height="5.72"/><path class="cls-1" d="M293.06,346.64h-7.79v-9h7.79v9Zm-4.51-3.28h1.22v-2.43h-1.22v2.43Z"/></g><g><rect class="cls-1" x="286.58" y="326.29" width="4.51" height="5.72"/><path class="cls-1" d="M292.73,333.65h-7.79v-9h7.79v9Zm-4.51-3.28h1.22v-2.43h-1.22v2.43Z"/></g><g><rect class="cls-1" x="298.31" y="312.13" width="4.51" height="5.72"/><path class="cls-1" d="M304.46,319.49h-7.79v-9h7.79v9Zm-4.51-3.28h1.22v-2.43h-1.22v2.43Z"/></g><g><rect class="cls-1" x="293.58" y="302.74" width="4.51" height="5.72"/><path class="cls-1" d="M299.73,310.1h-7.79v-9h7.79v9Zm-4.51-3.28h1.22v-2.43h-1.22v2.43Z"/></g><g><rect class="cls-1" x="289" y="292.76" width="4.51" height="5.72"/><path class="cls-1" d="M295.15,300.12h-7.79v-9h7.79v9Zm-4.51-3.28h1.22v-2.43h-1.22v2.43Z"/></g><g><rect class="cls-1" x="285.58" y="279.16" width="4.51" height="5.72"/><path class="cls-1" d="M291.73,286.52h-7.79v-9h7.79v9Zm-4.51-3.28h1.22v-2.43h-1.22v2.43Z"/></g><g><rect class="cls-1" x="285.28" y="266.13" width="4.51" height="5.72"/><path class="cls-1" d="M291.43,273.48h-7.79v-9h7.79v9Zm-4.51-3.28h1.22v-2.43h-1.22v2.43Z"/></g><g><rect class="cls-1" x="282.99" y="252.2" width="4.51" height="5.72"/><path class="cls-1" d="M289.14,259.55h-7.79v-9h7.79v9Zm-4.51-3.28h1.22v-2.43h-1.22v2.43Z"/></g><g><rect class="cls-1" x="305.3" y="249.73" width="4.51" height="5.72"/><path class="cls-1" d="M311.45,257.09h-7.79v-9h7.79v9Zm-4.51-3.28h1.22v-2.43h-1.22v2.43Z"/></g><g><rect class="cls-1" x="286.02" y="231.66" width="4.51" height="5.72"/><path class="cls-1" d="M292.17,239.01h-7.79v-9h7.79v9Zm-4.51-3.28h1.22v-2.43h-1.22v2.43Z"/></g><g><rect class="cls-1" x="304.03" y="223.96" width="4.51" height="5.72"/><path class="cls-1" d="M310.18,231.31h-7.79v-9h7.79v9Zm-4.51-3.28h1.22v-2.43h-1.22v2.43Z"/></g><g><rect class="cls-1" x="300.79" y="213.33" width="4.51" height="5.72"/><path class="cls-1" d="M306.94,220.69h-7.79v-9h7.79v9Zm-4.51-3.28h1.22v-2.43h-1.22v2.43Z"/></g><g><rect class="cls-1" x="291.8" y="196.39" width="4.51" height="5.72"/><path class="cls-1" d="M297.95,203.75h-7.79v-9h7.79v9Zm-4.51-3.28h1.22v-2.43h-1.22v2.43Z"/></g><g><rect class="cls-1" x="307.22" y="193.11" width="4.51" height="5.72"/><path class="cls-1" d="M313.37,200.47h-7.79v-9h7.79v9Zm-4.51-3.28h1.22v-2.43h-1.22v2.43Z"/></g><g><rect class="cls-1" x="319.95" y="188.45" width="4.51" height="5.72"/><path class="cls-1" d="M326.1,195.81h-7.79v-9h7.79v9Zm-4.51-3.28h1.22v-2.43h-1.22v2.43Z"/></g><g><rect class="cls-1" x="306.85" y="169.14" width="4.51" height="5.72"/><path class="cls-1" d="M313,176.5h-7.79v-9h7.79v9Zm-4.51-3.28h1.22v-2.43h-1.22v2.43Z"/></g><g><rect class="cls-1" x="323.49" y="168.64" width="4.51" height="5.72"/><path class="cls-1" d="M329.64,176h-7.79v-9h7.79v9Zm-4.51-3.28h1.22v-2.43h-1.22v2.43Z"/></g><g><rect class="cls-1" x="307.68" y="150.88" width="4.51" height="5.72"/><path class="cls-1" d="M313.83,158.23h-7.79v-9h7.79v9Zm-4.51-3.28h1.22v-2.43h-1.22v2.43Z"/></g><g><rect class="cls-1" x="330.82" y="150.14" width="4.51" height="5.72"/><path class="cls-1" d="M336.96,157.5h-7.79v-9h7.79v9Zm-4.51-3.28h1.22v-2.43h-1.22v2.43Z"/></g><g><rect class="cls-1" x="330.57" y="140.97" width="4.51" height="5.72"/><path class="cls-1" d="M336.72,148.33h-7.79v-9h7.79v9Zm-4.51-3.28h1.22v-2.43h-1.22v2.43Z"/></g><g><rect class="cls-1" x="319.37" y="121.9" width="4.51" height="5.72"/><path class="cls-1" d="M325.52,129.26h-7.79v-9h7.79v9Zm-4.51-3.28h1.22v-2.43h-1.22v2.43Z"/></g><g><rect class="cls-1" x="330.36" y="117.35" width="4.51" height="5.72"/><path class="cls-1" d="M336.51,124.71h-7.79v-9h7.79v9Zm-4.51-3.28h1.22v-2.43h-1.22v2.43Z"/></g><g><rect class="cls-1" x="339.06" y="112.87" width="4.51" height="5.72"/><path class="cls-1" d="M345.21,120.22h-7.79v-9h7.79v9Zm-4.51-3.28h1.22v-2.43h-1.22v2.43Z"/></g><g><rect class="cls-1" x="345.98" y="104.58" width="4.51" height="5.72"/><path class="cls-1" d="M352.13,111.94h-7.79v-9h7.79v9Zm-4.51-3.28h1.22v-2.43h-1.22v2.43Z"/></g><g><rect class="cls-1" x="334.01" y="83.26" width="4.51" height="5.72"/><path class="cls-1" d="M340.16,90.61h-7.79v-9h7.79v9Zm-4.51-3.28h1.22v-2.43h-1.22v2.43Z"/></g><g><rect class="cls-1" x="351.52" y="84.82" width="4.51" height="5.72"/><path class="cls-1" d="M357.67,92.18h-7.79v-9h7.79v9Zm-4.51-3.28h1.22v-2.43h-1.22v2.43Z"/></g><g><rect class="cls-1" x="342.1" y="68.47" width="4.51" height="5.72"/><path class="cls-1" d="M348.25,75.83h-7.79v-9h7.79v9Zm-4.51-3.28h1.22v-2.43h-1.22v2.43Z"/></g><g><rect class="cls-1" x="357.25" y="65.96" width="4.51" height="5.72"/><path class="cls-1" d="M363.4,73.32h-7.79v-9h7.79v9Zm-4.51-3.28h1.22v-2.43h-1.22v2.43Z"/></g><g><rect class="cls-1" x="357.73" y="58.26" width="4.51" height="5.72"/><path class="cls-1" d="M363.88,65.62h-7.79v-9h7.79v9Zm-4.51-3.28h1.22v-2.43h-1.22v2.43Z"/></g><g><rect class="cls-1" x="359.28" y="48.68" width="4.51" height="5.72"/><path class="cls-1" d="M365.43,56.04h-7.79v-9h7.79v9Zm-4.51-3.28h1.22v-2.43h-1.22v2.43Z"/></g><g><rect class="cls-1" x="361.74" y="34.78" width="4.51" height="5.72"/><path class="cls-1" d="M367.89,42.14h-7.79v-9h7.79v9Zm-4.51-3.28h1.22v-2.43h-1.22v2.43Z"/></g><g><rect class="cls-1" x="364.42" y="27.11" width="4.51" height="5.72"/><path class="cls-1" d="M370.57,34.47h-7.79v-9h7.79v9Zm-4.51-3.28h1.22v-2.43h-1.22v2.43Z"/></g><g><rect class="cls-1" x="367.69" y="20.85" width="4.51" height="5.72"/><path class="cls-1" d="M373.84,28.21h-7.79v-9h7.79v9Zm-4.51-3.28h1.22v-2.43h-1.22v2.43Z"/></g><g><rect class="cls-1" x="382.83" y="23.82" width="4.51" height="5.72"/><path class="cls-1" d="M388.98,31.18h-7.79v-9h7.79v9Zm-4.51-3.28h1.22v-2.43h-1.22v2.43Z"/></g><g><rect class="cls-1" x="396.75" y="23.95" width="4.51" height="5.72"/><path class="cls-1" d="M402.9,31.31h-7.79v-9h7.79v9Zm-4.51-3.28h1.22v-2.43h-1.22v2.43Z"/></g><g><rect class="cls-1" x="385.78" y="1.64" width="4.51" height="5.72"/><path class="cls-1" d="M391.93,9h-7.79V0h7.79V9Zm-4.51-3.28h1.22V3.28h-1.22v2.43Z"/></g></g><g><g><rect class="cls-1" x="563.73" y="334.21" width="4.51" height="5.72"/><path class="cls-1" d="M569.88,341.57h-7.79v-9h7.79v9Zm-4.51-3.28h1.22v-2.43h-1.22v2.43Z"/></g><g><rect class="cls-1" x="565" y="349.68" width="4.51" height="5.72"/><path class="cls-1" d="M571.15,357.03h-7.79v-9h7.79v9Zm-4.51-3.28h1.22v-2.43h-1.22v2.43Z"/></g><g><rect class="cls-1" x="565.12" y="365.98" width="4.51" height="5.72"/><path class="cls-1" d="M571.27,373.34h-7.79v-9h7.79v9Zm-4.51-3.28h1.22v-2.43h-1.22v2.43Z"/></g><g><rect class="cls-1" x="549.25" y="357.02" width="4.51" height="5.72"/><path class="cls-1" d="M555.4,364.37h-7.79v-9h7.79v9Zm-4.51-3.28h1.22v-2.43h-1.22v2.43Z"/></g><g><rect class="cls-1" x="555.91" y="378.54" width="4.51" height="5.72"/><path class="cls-1" d="M562.06,385.9h-7.79v-9h7.79v9Zm-4.51-3.28h1.22v-2.43h-1.22v2.43Z"/></g><g><rect class="cls-1" x="548.31" y="384.56" width="4.51" height="5.72"/><path class="cls-1" d="M554.46,391.92h-7.79v-9h7.79v9Zm-4.51-3.28h1.22v-2.43h-1.22v2.43Z"/></g><g><rect class="cls-1" x="536.4" y="387.66" width="4.51" height="5.72"/><path class="cls-1" d="M542.55,395.02h-7.79v-9h7.79v9Zm-4.51-3.28h1.22v-2.43h-1.22v2.43Z"/></g><g><rect class="cls-1" x="536.2" y="408.54" width="4.51" height="5.72"/><path class="cls-1" d="M542.35,415.89h-7.79v-9h7.79v9Zm-4.51-3.28h1.22v-2.43h-1.22v2.43Z"/></g><g><rect class="cls-1" x="519.44" y="389.98" width="4.51" height="5.72"/><path class="cls-1" d="M525.59,397.33h-7.79v-9h7.79v9Zm-4.51-3.28h1.22v-2.43h-1.22v2.43Z"/></g><g><rect class="cls-1" x="516.67" y="398.08" width="4.51" height="5.72"/><path class="cls-1" d="M522.82,405.44h-7.79v-9h7.79v9Zm-4.51-3.28h1.22v-2.43h-1.22v2.43Z"/></g><g><rect class="cls-1" x="509.65" y="401.86" width="4.51" height="5.72"/><path class="cls-1" d="M515.8,409.22h-7.79v-9h7.79v9Zm-4.51-3.28h1.22v-2.43h-1.22v2.43Z"/></g><g><rect class="cls-1" x="510.51" y="427.08" width="4.51" height="5.72"/><path class="cls-1" d="M516.66,434.44h-7.79v-9h7.79v9Zm-4.51-3.28h1.22v-2.43h-1.22v2.43Z"/></g><g><rect class="cls-1" x="497.78" y="412.54" width="4.51" height="5.72"/><path class="cls-1" d="M503.93,419.9h-7.79v-9h7.79v9Zm-4.51-3.28h1.22v-2.43h-1.22v2.43Z"/></g><g><rect class="cls-1" x="486.84" y="425.4" width="4.51" height="5.72"/><path class="cls-1" d="M492.99,432.76h-7.79v-9h7.79v9Zm-4.51-3.28h1.22v-2.43h-1.22v2.43Z"/></g><g><rect class="cls-1" x="478.58" y="425.43" width="4.51" height="5.72"/><path class="cls-1" d="M484.72,432.79h-7.79v-9h7.79v9Zm-4.51-3.28h1.22v-2.43h-1.22v2.43Z"/></g><g><rect class="cls-1" x="468.52" y="419.77" width="4.51" height="5.72"/><path class="cls-1" d="M474.67,427.13h-7.79v-9h7.79v9Zm-4.51-3.28h1.22v-2.43h-1.22v2.43Z"/></g><g><rect class="cls-1" x="455.63" y="415.38" width="4.51" height="5.72"/><path class="cls-1" d="M461.78,422.73h-7.79v-9h7.79v9Zm-4.51-3.28h1.22v-2.43h-1.22v2.43Z"/></g><g><rect class="cls-1" x="448.26" y="438.57" width="4.51" height="5.72"/><path class="cls-1" d="M454.41,445.92h-7.79v-9h7.79v9Zm-4.51-3.28h1.22v-2.43h-1.22v2.43Z"/></g><g><rect class="cls-1" x="433.18" y="436.45" width="4.51" height="5.72"/><path class="cls-1" d="M439.33,443.81h-7.79v-9h7.79v9Zm-4.51-3.28h1.22v-2.43h-1.22v2.43Z"/></g><g><rect class="cls-1" x="415.64" y="438.13" width="4.51" height="5.72"/><path class="cls-1" d="M421.78,445.49h-7.79v-9h7.79v9Zm-4.51-3.28h1.22v-2.43h-1.22v2.43Z"/></g><g><rect class="cls-1" x="406.93" y="417.36" width="4.51" height="5.72"/><path class="cls-1" d="M413.08,424.71h-7.79v-9h7.79v9Zm-4.51-3.28h1.22v-2.43h-1.22v2.43Z"/></g><g><rect class="cls-1" x="394.88" y="439.22" width="4.51" height="5.72"/><path class="cls-1" d="M401.03,446.58h-7.79v-9h7.79v9Zm-4.51-3.28h1.22v-2.43h-1.22v2.43Z"/></g><g><rect class="cls-1" x="389.35" y="407.96" width="4.51" height="5.72"/><path class="cls-1" d="M395.5,415.32h-7.79v-9h7.79v9Zm-4.51-3.28h1.22v-2.43h-1.22v2.43Z"/></g><g><rect class="cls-1" x="374.38" y="414.62" width="4.51" height="5.72"/><path class="cls-1" d="M380.53,421.98h-7.79v-9h7.79v9Zm-4.51-3.28h1.22v-2.43h-1.22v2.43Z"/></g><g><rect class="cls-1" x="368.96" y="412.44" width="4.51" height="5.72"/><path class="cls-1" d="M375.11,419.8h-7.79v-9h7.79v9Zm-4.51-3.28h1.22v-2.43h-1.22v2.43Z"/></g><g><rect class="cls-1" x="368.12" y="390.29" width="4.51" height="5.72"/><path class="cls-1" d="M374.27,397.65h-7.79v-9h7.79v9Zm-4.51-3.28h1.22v-2.43h-1.22v2.43Z"/></g><g><rect class="cls-1" x="349.74" y="404.94" width="4.51" height="5.72"/><path class="cls-1" d="M355.89,412.29h-7.79v-9h7.79v9Zm-4.51-3.28h1.22v-2.43h-1.22v2.43Z"/></g><g><rect class="cls-1" x="345" y="400.58" width="4.51" height="5.72"/><path class="cls-1" d="M351.15,407.94h-7.79v-9h7.79v9Zm-4.51-3.28h1.22v-2.43h-1.22v2.43Z"/></g><g><rect class="cls-1" x="354.28" y="375.73" width="4.51" height="5.72"/><path class="cls-1" d="M360.43,383.09h-7.79v-9h7.79v9Zm-4.51-3.28h1.22v-2.43h-1.22v2.43Z"/></g><g><rect class="cls-1" x="352.01" y="368.04" width="4.51" height="5.72"/><path class="cls-1" d="M358.15,375.4h-7.79v-9h7.79v9Zm-4.51-3.28h1.22v-2.43h-1.22v2.43Z"/></g><g><rect class="cls-1" x="335.4" y="361.96" width="4.51" height="5.72"/><path class="cls-1" d="M341.55,369.32h-7.79v-9h7.79v9Zm-4.51-3.28h1.22v-2.43h-1.22v2.43Z"/></g><g><rect class="cls-1" x="343.96" y="350.04" width="4.51" height="5.72"/><path class="cls-1" d="M350.11,357.4h-7.79v-9h7.79v9Zm-4.51-3.28h1.22v-2.43h-1.22v2.43Z"/></g><g><rect class="cls-1" x="342.27" y="341.42" width="4.51" height="5.72"/><path class="cls-1" d="M348.42,348.78h-7.79v-9h7.79v9Zm-4.51-3.28h1.22v-2.43h-1.22v2.43Z"/></g><g><rect class="cls-1" x="334.99" y="336.19" width="4.51" height="5.72"/><path class="cls-1" d="M341.14,343.55h-7.79v-9h7.79v9Zm-4.51-3.28h1.22v-2.43h-1.22v2.43Z"/></g><g><rect class="cls-1" x="327.42" y="327.38" width="4.51" height="5.72"/><path class="cls-1" d="M333.57,334.74h-7.79v-9h7.79v9Zm-4.51-3.28h1.22v-2.43h-1.22v2.43Z"/></g><g><rect class="cls-1" x="334.63" y="313.72" width="4.51" height="5.72"/><path class="cls-1" d="M340.78,321.08h-7.79v-9h7.79v9Zm-4.51-3.28h1.22v-2.43h-1.22v2.43Z"/></g><g><rect class="cls-1" x="315.79" y="312.56" width="4.51" height="5.72"/><path class="cls-1" d="M321.94,319.92h-7.79v-9h7.79v9Zm-4.51-3.28h1.22v-2.43h-1.22v2.43Z"/></g><g><rect class="cls-1" x="315.04" y="292.26" width="4.51" height="5.72"/><path class="cls-1" d="M321.19,299.62h-7.79v-9h7.79v9Zm-4.51-3.28h1.22v-2.43h-1.22v2.43Z"/></g><g><rect class="cls-1" x="334.5" y="288.49" width="4.51" height="5.72"/><path class="cls-1" d="M340.64,295.85h-7.79v-9h7.79v9Zm-4.51-3.28h1.22v-2.43h-1.22v2.43Z"/></g><g><rect class="cls-1" x="330.35" y="278.45" width="4.51" height="5.72"/><path class="cls-1" d="M336.5,285.8h-7.79v-9h7.79v9Zm-4.51-3.28h1.22v-2.43h-1.22v2.43Z"/></g><g><rect class="cls-1" x="336.78" y="273.06" width="4.51" height="5.72"/><path class="cls-1" d="M342.93,280.42h-7.79v-9h7.79v9Zm-4.51-3.28h1.22v-2.43h-1.22v2.43Z"/></g><g><rect class="cls-1" x="318.97" y="260.24" width="4.51" height="5.72"/><path class="cls-1" d="M325.12,267.6h-7.79v-9h7.79v9Zm-4.51-3.28h1.22v-2.43h-1.22v2.43Z"/></g><g><rect class="cls-1" x="332.67" y="252.48" width="4.51" height="5.72"/><path class="cls-1" d="M338.82,259.84h-7.79v-9h7.79v9Zm-4.51-3.28h1.22v-2.43h-1.22v2.43Z"/></g><g><rect class="cls-1" x="333.25" y="243.82" width="4.51" height="5.72"/><path class="cls-1" d="M339.4,251.18h-7.79v-9h7.79v9Zm-4.51-3.28h1.22v-2.43h-1.22v2.43Z"/></g><g><rect class="cls-1" x="333.56" y="233.75" width="4.51" height="5.72"/><path class="cls-1" d="M339.71,241.1h-7.79v-9h7.79v9Zm-4.51-3.28h1.22v-2.43h-1.22v2.43Z"/></g><g><rect class="cls-1" x="340.81" y="227.83" width="4.51" height="5.72"/><path class="cls-1" d="M346.95,235.18h-7.79v-9h7.79v9Zm-4.51-3.28h1.22v-2.43h-1.22v2.43Z"/></g><g><rect class="cls-1" x="350.16" y="220.46" width="4.51" height="5.72"/><path class="cls-1" d="M356.31,227.82h-7.79v-9h7.79v9Zm-4.51-3.28h1.22v-2.43h-1.22v2.43Z"/></g><g><rect class="cls-1" x="344.66" y="206.47" width="4.51" height="5.72"/><path class="cls-1" d="M350.81,213.82h-7.79v-9h7.79v9Zm-4.51-3.28h1.22v-2.43h-1.22v2.43Z"/></g><g><rect class="cls-1" x="344.98" y="193.29" width="4.51" height="5.72"/><path class="cls-1" d="M351.13,200.64h-7.79v-9h7.79v9Zm-4.51-3.28h1.22v-2.43h-1.22v2.43Z"/></g><g><rect class="cls-1" x="343.79" y="183.93" width="4.51" height="5.72"/><path class="cls-1" d="M349.93,191.29h-7.79v-9h7.79v9Zm-4.51-3.28h1.22v-2.43h-1.22v2.43Z"/></g><g><rect class="cls-1" x="357.63" y="181.37" width="4.51" height="5.72"/><path class="cls-1" d="M363.78,188.73h-7.79v-9h7.79v9Zm-4.51-3.28h1.22v-2.43h-1.22v2.43Z"/></g><g><rect class="cls-1" x="365.79" y="175.11" width="4.51" height="5.72"/><path class="cls-1" d="M371.94,182.46h-7.79v-9h7.79v9Zm-4.51-3.28h1.22v-2.43h-1.22v2.43Z"/></g><g><rect class="cls-1" x="369.31" y="163.75" width="4.51" height="5.72"/><path class="cls-1" d="M375.46,171.1h-7.79v-9h7.79v9Zm-4.51-3.28h1.22v-2.43h-1.22v2.43Z"/></g><g><rect class="cls-1" x="356.19" y="143.39" width="4.51" height="5.72"/><path class="cls-1" d="M362.34,150.75h-7.79v-9h7.79v9Zm-4.51-3.28h1.22v-2.43h-1.22v2.43Z"/></g><g><rect class="cls-1" x="367.3" y="139.96" width="4.51" height="5.72"/><path class="cls-1" d="M373.45,147.32h-7.79v-9h7.79v9Zm-4.51-3.28h1.22v-2.43h-1.22v2.43Z"/></g><g><rect class="cls-1" x="370.1" y="131.84" width="4.51" height="5.72"/><path class="cls-1" d="M376.25,139.19h-7.79v-9h7.79v9Zm-4.51-3.28h1.22v-2.43h-1.22v2.43Z"/></g><g><rect class="cls-1" x="366.32" y="122.34" width="4.51" height="5.72"/><path class="cls-1" d="M372.47,129.7h-7.79v-9h7.79v9Zm-4.51-3.28h1.22v-2.43h-1.22v2.43Z"/></g><g><rect class="cls-1" x="374.86" y="118.33" width="4.51" height="5.72"/><path class="cls-1" d="M381.01,125.69h-7.79v-9h7.79v9Zm-4.51-3.28h1.22v-2.43h-1.22v2.43Z"/></g><g><rect class="cls-1" x="365.58" y="100.21" width="4.51" height="5.72"/><path class="cls-1" d="M371.73,107.57h-7.79v-9h7.79v9Zm-4.51-3.28h1.22v-2.43h-1.22v2.43Z"/></g><g><rect class="cls-1" x="374.23" y="93.49" width="4.51" height="5.72"/><path class="cls-1" d="M380.38,100.85h-7.79v-9h7.79v9Zm-4.51-3.28h1.22v-2.43h-1.22v2.43Z"/></g><g><rect class="cls-1" x="381.68" y="90.77" width="4.51" height="5.72"/><path class="cls-1" d="M387.82,98.13h-7.79v-9h7.79v9Zm-4.51-3.28h1.22v-2.43h-1.22v2.43Z"/></g><g><rect class="cls-1" x="387.95" y="87.32" width="4.51" height="5.72"/><path class="cls-1" d="M394.1,94.67h-7.79v-9h7.79v9Zm-4.51-3.28h1.22v-2.43h-1.22v2.43Z"/></g><g><rect class="cls-1" x="385.53" y="71.12" width="4.51" height="5.72"/><path class="cls-1" d="M391.68,78.47h-7.79v-9h7.79v9Zm-4.51-3.28h1.22v-2.43h-1.22v2.43Z"/></g><g><rect class="cls-1" x="382.64" y="61.07" width="4.51" height="5.72"/><path class="cls-1" d="M388.79,68.43h-7.79v-9h7.79v9Zm-4.51-3.28h1.22v-2.43h-1.22v2.43Z"/></g><g><rect class="cls-1" x="393.01" y="54.98" width="4.51" height="5.72"/><path class="cls-1" d="M399.15,62.34h-7.79v-9h7.79v9Zm-4.51-3.28h1.22v-2.43h-1.22v2.43Z"/></g><g><rect class="cls-1" x="389.68" y="41.97" width="4.51" height="5.72"/><path class="cls-1" d="M395.83,49.33h-7.79v-9h7.79v9Zm-4.51-3.28h1.22v-2.43h-1.22v2.43Z"/></g><g><rect class="cls-1" x="416.47" y="50.56" width="4.51" height="5.72"/><path class="cls-1" d="M422.62,57.91h-7.79v-9h7.79v9Zm-4.51-3.28h1.22v-2.43h-1.22v2.43Z"/></g><g><rect class="cls-1" x="414.27" y="35.37" width="4.51" height="5.72"/><path class="cls-1" d="M420.42,42.72h-7.79v-9h7.79v9Zm-4.51-3.28h1.22v-2.43h-1.22v2.43Z"/></g><g><rect class="cls-1" x="412.03" y="15.97" width="4.51" height="5.72"/><path class="cls-1" d="M418.17,23.32h-7.79V14.32h7.79v9Zm-4.51-3.28h1.22v-2.43h-1.22v2.43Z"/></g><g><rect class="cls-1" x="427.86" y="19.24" width="4.51" height="5.72"/><path class="cls-1" d="M434.01,26.6h-7.79v-9h7.79v9Zm-4.51-3.28h1.22v-2.43h-1.22v2.43Z"/></g><g><rect class="cls-1" x="428" y="7.93" width="4.51" height="5.72"/><path class="cls-1" d="M434.15,15.29h-7.79V6.29h7.79V15.29Zm-4.51-3.28h1.22v-2.43h-1.22v2.43Z"/></g></g><g><g><rect class="cls-1" x="576.68" y="372.51" width="4.51" height="5.72"/><path class="cls-1" d="M582.83,379.87h-7.79v-9h7.79v9Zm-4.51-3.28h1.22v-2.43h-1.22v2.43Z"/></g><g><rect class="cls-1" x="571.26" y="393.08" width="4.51" height="5.72"/><path class="cls-1" d="M577.41,400.44h-7.79v-9h7.79v9Zm-4.51-3.28h1.22v-2.43h-1.22v2.43Z"/></g><g><rect class="cls-1" x="563.14" y="393.56" width="4.51" height="5.72"/><path class="cls-1" d="M569.29,400.91h-7.79v-9h7.79v9Zm-4.51-3.28h1.22v-2.43h-1.22v2.43Z"/></g><g><rect class="cls-1" x="546.19" y="396.48" width="4.51" height="5.72"/><path class="cls-1" d="M552.34,403.83h-7.79v-9h7.79v9Zm-4.51-3.28h1.22v-2.43h-1.22v2.43Z"/></g><g><rect class="cls-1" x="543.69" y="413.83" width="4.51" height="5.72"/><path class="cls-1" d="M549.84,421.19h-7.79v-9h7.79v9Zm-4.51-3.28h1.22v-2.43h-1.22v2.43Z"/></g><g><rect class="cls-1" x="535.29" y="412.07" width="4.51" height="5.72"/><path class="cls-1" d="M541.44,419.43h-7.79v-9h7.79v9Zm-4.51-3.28h1.22v-2.43h-1.22v2.43Z"/></g><g><rect class="cls-1" x="483.46" y="442.64" width="4.51" height="5.72"/><path class="cls-1" d="M489.61,450h-7.79v-9h7.79v9Zm-4.51-3.28h1.22v-2.43h-1.22v2.43Z"/></g><g><rect class="cls-1" x="465.9" y="433.63" width="4.51" height="5.72"/><path class="cls-1" d="M472.05,440.98h-7.79v-9h7.79v9Zm-4.51-3.28h1.22v-2.43h-1.22v2.43Z"/></g><g><rect class="cls-1" x="437.8" y="411.8" width="4.51" height="5.72"/><path class="cls-1" d="M443.95,419.15h-7.79v-9h7.79v9Zm-4.51-3.28h1.22v-2.43h-1.22v2.43Z"/></g><g><rect class="cls-1" x="427.24" y="399.67" width="4.51" height="5.72"/><path class="cls-1" d="M433.39,407.03h-7.79v-9h7.79v9Zm-4.51-3.28h1.22v-2.43h-1.22v2.43Z"/></g><g><rect class="cls-1" x="421.51" y="397.25" width="4.51" height="5.72"/><path class="cls-1" d="M427.66,404.61h-7.79v-9h7.79v9Zm-4.51-3.28h1.22v-2.43h-1.22v2.43Z"/></g><g><rect class="cls-1" x="411.4" y="402.59" width="4.51" height="5.72"/><path class="cls-1" d="M417.55,409.95h-7.79v-9h7.79v9Zm-4.51-3.28h1.22v-2.43h-1.22v2.43Z"/></g><g><rect class="cls-1" x="402.76" y="407.91" width="4.51" height="5.72"/><path class="cls-1" d="M408.91,415.27h-7.79v-9h7.79v9Zm-4.51-3.28h1.22v-2.43h-1.22v2.43Z"/></g><g><rect class="cls-1" x="399.87" y="396.15" width="4.51" height="5.72"/><path class="cls-1" d="M406.02,403.51h-7.79v-9h7.79v9Zm-4.51-3.28h1.22v-2.43h-1.22v2.43Z"/></g><g><rect class="cls-1" x="385.3" y="403.78" width="4.51" height="5.72"/><path class="cls-1" d="M391.45,411.13h-7.79v-9h7.79v9Zm-4.51-3.28h1.22v-2.43h-1.22v2.43Z"/></g><g><rect class="cls-1" x="384.56" y="378.37" width="4.51" height="5.72"/><path class="cls-1" d="M390.71,385.73h-7.79v-9h7.79v9Zm-4.51-3.28h1.22v-2.43h-1.22v2.43Z"/></g><g><rect class="cls-1" x="374.05" y="370.91" width="4.51" height="5.72"/><path class="cls-1" d="M380.2,378.27h-7.79v-9h7.79v9Zm-4.51-3.28h1.22v-2.43h-1.22v2.43Z"/></g><g><rect class="cls-1" x="388.62" y="354.31" width="4.51" height="5.72"/><path class="cls-1" d="M394.77,361.66h-7.79v-9h7.79v9Zm-4.51-3.28h1.22v-2.43h-1.22v2.43Z"/></g><g><rect class="cls-1" x="379.39" y="349.98" width="4.51" height="5.72"/><path class="cls-1" d="M385.53,357.34h-7.79v-9h7.79v9Zm-4.51-3.28h1.22v-2.43h-1.22v2.43Z"/></g><g><rect class="cls-1" x="368.83" y="342.5" width="4.51" height="5.72"/><path class="cls-1" d="M374.98,349.85h-7.79v-9h7.79v9Zm-4.51-3.28h1.22v-2.43h-1.22v2.43Z"/></g><g><rect class="cls-1" x="367.37" y="334.54" width="4.51" height="5.72"/><path class="cls-1" d="M373.52,341.9h-7.79v-9h7.79v9Zm-4.51-3.28h1.22v-2.43h-1.22v2.43Z"/></g><g><rect class="cls-1" x="372.62" y="321.61" width="4.51" height="5.72"/><path class="cls-1" d="M378.77,328.97h-7.79v-9h7.79v9Zm-4.51-3.28h1.22v-2.43h-1.22v2.43Z"/></g><g><rect class="cls-1" x="360.71" y="317.74" width="4.51" height="5.72"/><path class="cls-1" d="M366.86,325.1h-7.79v-9h7.79v9Zm-4.51-3.28h1.22v-2.43h-1.22v2.43Z"/></g><g><rect class="cls-1" x="361.5" y="301.76" width="4.51" height="5.72"/><path class="cls-1" d="M367.65,309.12h-7.79v-9h7.79v9Zm-4.51-3.28h1.22v-2.43h-1.22v2.43Z"/></g><g><rect class="cls-1" x="367.35" y="290.86" width="4.51" height="5.72"/><path class="cls-1" d="M373.5,298.22h-7.79v-9h7.79v9Zm-4.51-3.28h1.22v-2.43h-1.22v2.43Z"/></g><g><rect class="cls-1" x="380.04" y="283.96" width="4.51" height="5.72"/><path class="cls-1" d="M386.19,291.31h-7.79v-9h7.79v9Zm-4.51-3.28h1.22v-2.43h-1.22v2.43Z"/></g><g><rect class="cls-1" x="369.47" y="273.9" width="4.51" height="5.72"/><path class="cls-1" d="M375.62,281.26h-7.79v-9h7.79v9Zm-4.51-3.28h1.22v-2.43h-1.22v2.43Z"/></g><g><rect class="cls-1" x="365.42" y="265.06" width="4.51" height="5.72"/><path class="cls-1" d="M371.57,272.42h-7.79v-9h7.79v9Zm-4.51-3.28h1.22v-2.43h-1.22v2.43Z"/></g><g><rect class="cls-1" x="382.64" y="258.57" width="4.51" height="5.72"/><path class="cls-1" d="M388.79,265.93h-7.79v-9h7.79v9Zm-4.51-3.28h1.22v-2.43h-1.22v2.43Z"/></g><g><rect class="cls-1" x="368.22" y="242.38" width="4.51" height="5.72"/><path class="cls-1" d="M374.37,249.74h-7.79v-9h7.79v9Zm-4.51-3.28h1.22v-2.43h-1.22v2.43Z"/></g><g><rect class="cls-1" x="379.66" y="234.74" width="4.51" height="5.72"/><path class="cls-1" d="M385.81,242.1h-7.79v-9h7.79v9Zm-4.51-3.28h1.22v-2.43h-1.22v2.43Z"/></g><g><rect class="cls-1" x="384.55" y="223.92" width="4.51" height="5.72"/><path class="cls-1" d="M390.7,231.28h-7.79v-9h7.79v9Zm-4.51-3.28h1.22v-2.43h-1.22v2.43Z"/></g><g><rect class="cls-1" x="383.91" y="210.76" width="4.51" height="5.72"/><path class="cls-1" d="M382.27,218.12v-9h7.79v9h-7.79Zm3.28-5.72v2.43h1.22v-2.43h-1.22Z"/></g><g><rect class="cls-1" x="379.49" y="195.07" width="4.51" height="5.72"/><path class="cls-1" d="M385.64,202.43h-7.79v-9h7.79v9Zm-4.51-3.28h1.22v-2.43h-1.22v2.43Z"/></g><g><rect class="cls-1" x="391.85" y="192.88" width="4.51" height="5.72"/><path class="cls-1" d="M398,200.24h-7.79v-9h7.79v9Zm-4.51-3.28h1.22v-2.43h-1.22v2.43Z"/></g><g><rect class="cls-1" x="389.24" y="183.2" width="4.51" height="5.72"/><path class="cls-1" d="M395.39,190.55h-7.79v-9h7.79v9Zm-4.51-3.28h1.22v-2.43h-1.22v2.43Z"/></g><g><rect class="cls-1" x="393.41" y="171.51" width="4.51" height="5.72"/><path class="cls-1" d="M399.56,178.87h-7.79v-9h7.79v9Zm-4.51-3.28h1.22v-2.43h-1.22v2.43Z"/></g><g><rect class="cls-1" x="393.76" y="161.22" width="4.51" height="5.72"/><path class="cls-1" d="M399.91,168.58h-7.79v-9h7.79v9Zm-4.51-3.28h1.22v-2.43h-1.22v2.43Z"/></g><g><rect class="cls-1" x="399.06" y="150.25" width="4.51" height="5.72"/><path class="cls-1" d="M405.21,157.6h-7.79v-9h7.79v9Zm-4.51-3.28h1.22v-2.43h-1.22v2.43Z"/></g><g><rect class="cls-1" x="392.58" y="136.68" width="4.51" height="5.72"/><path class="cls-1" d="M398.73,144.04h-7.79v-9h7.79v9Zm-4.51-3.28h1.22v-2.43h-1.22v2.43Z"/></g><g><rect class="cls-1" x="397.68" y="125.58" width="4.51" height="5.72"/><path class="cls-1" d="M403.83,132.94h-7.79v-9h7.79v9Zm-4.51-3.28h1.22v-2.43h-1.22v2.43Z"/></g><g><rect class="cls-1" x="422.41" y="128.75" width="4.51" height="5.72"/><path class="cls-1" d="M428.56,136.1h-7.79v-9h7.79v9Zm-4.51-3.28h1.22v-2.43h-1.22v2.43Z"/></g><g><rect class="cls-1" x="421.1" y="117.53" width="4.51" height="5.72"/><path class="cls-1" d="M427.25,124.89h-7.79v-9h7.79v9Zm-4.51-3.28h1.22v-2.43h-1.22v2.43Z"/></g><g><rect class="cls-1" x="411.42" y="102.97" width="4.51" height="5.72"/><path class="cls-1" d="M417.57,110.33h-7.79v-9h7.79v9Zm-4.51-3.28h1.22v-2.43h-1.22v2.43Z"/></g><g><rect class="cls-1" x="409.89" y="85.53" width="4.51" height="5.72"/><path class="cls-1" d="M416.04,92.88h-7.79v-9h7.79v9Zm-4.51-3.28h1.22v-2.43h-1.22v2.43Z"/></g><g><rect class="cls-1" x="426.15" y="83.3" width="4.51" height="5.72"/><path class="cls-1" d="M432.3,90.66h-7.79v-9h7.79v9Zm-4.51-3.28h1.22v-2.43h-1.22v2.43Z"/></g><g><rect class="cls-1" x="423.52" y="66.39" width="4.51" height="5.72"/><path class="cls-1" d="M429.67,73.75h-7.79v-9h7.79v9Zm-4.51-3.28h1.22v-2.43h-1.22v2.43Z"/></g><g><rect class="cls-1" x="428.39" y="57.5" width="4.51" height="5.72"/><path class="cls-1" d="M434.54,64.86h-7.79v-9h7.79v9Zm-4.51-3.28h1.22v-2.43h-1.22v2.43Z"/></g><g><rect class="cls-1" x="447.72" y="62.95" width="4.51" height="5.72"/><path class="cls-1" d="M453.87,70.31h-7.79v-9h7.79v9Zm-4.51-3.28h1.22v-2.43h-1.22v2.43Z"/></g><g><rect class="cls-1" x="442.32" y="47.22" width="4.51" height="5.72"/><path class="cls-1" d="M448.47,54.58h-7.79v-9h7.79v9Zm-4.51-3.28h1.22v-2.43h-1.22v2.43Z"/></g><g><rect class="cls-1" x="451.71" y="41.62" width="4.51" height="5.72"/><path class="cls-1" d="M457.86,48.97h-7.79v-9h7.79v9Zm-4.51-3.28h1.22v-2.43h-1.22v2.43Z"/></g><g><rect class="cls-1" x="452.59" y="30.98" width="4.51" height="5.72"/><path class="cls-1" d="M458.74,38.33h-7.79v-9h7.79v9Zm-4.51-3.28h1.22v-2.43h-1.22v2.43Z"/></g><g><rect class="cls-1" x="461.73" y="27.92" width="4.51" height="5.72"/><path class="cls-1" d="M467.88,35.28h-7.79v-9h7.79v9Zm-4.51-3.28h1.22v-2.43h-1.22v2.43Z"/></g><g><rect class="cls-1" x="461.83" y="15.16" width="4.51" height="5.72"/><path class="cls-1" d="M467.97,22.52h-7.79V13.52h7.79v9Zm-4.51-3.28h1.22v-2.43h-1.22v2.43Z"/></g><g><rect class="cls-1" x="464.37" y="2.64" width="4.51" height="5.72"/><path class="cls-1" d="M470.52,10h-7.79V1h7.79V10Zm-4.51-3.28h1.22v-2.43h-1.22v2.43Z"/></g></g><g><g><rect class="cls-1" x="656.06" y="436.97" width="4.51" height="5.72"/><path class="cls-1" d="M662.21,444.33h-7.79v-9h7.79v9Zm-4.51-3.28h1.22v-2.43h-1.22v2.43Z"/></g><g><rect class="cls-1" x="660.08" y="430.21" width="4.51" height="5.72"/><path class="cls-1" d="M666.23,437.57h-7.79v-9h7.79v9Zm-4.51-3.28h1.22v-2.43h-1.22v2.43Z"/></g><g><rect class="cls-1" x="673.25" y="418.3" width="4.51" height="5.72"/><path class="cls-1" d="M679.4,425.66h-7.79v-9h7.79v9Zm-4.51-3.28h1.22v-2.43h-1.22v2.43Z"/></g><g><rect class="cls-1" x="677.56" y="407.23" width="4.51" height="5.72"/><path class="cls-1" d="M683.7,414.59h-7.79v-9h7.79v9Zm-4.51-3.28h1.22v-2.43h-1.22v2.43Z"/></g><g><rect class="cls-1" x="658.9" y="398.65" width="4.51" height="5.72"/><path class="cls-1" d="M665.05,406.01h-7.79v-9h7.79v9Zm-4.51-3.28h1.22v-2.43h-1.22v2.43Z"/></g><g><rect class="cls-1" x="676.52" y="387.44" width="4.51" height="5.72"/><path class="cls-1" d="M682.67,394.8h-7.79v-9h7.79v9Zm-4.51-3.28h1.22v-2.43h-1.22v2.43Z"/></g><g><rect class="cls-1" x="679.97" y="381.05" width="4.51" height="5.72"/><path class="cls-1" d="M686.12,388.4h-7.79v-9h7.79v9Zm-4.51-3.28h1.22v-2.43h-1.22v2.43Z"/></g><g><rect class="cls-1" x="656.51" y="369.3" width="4.51" height="5.72"/><path class="cls-1" d="M662.66,376.65h-7.79v-9h7.79v9Zm-4.51-3.28h1.22v-2.43h-1.22v2.43Z"/></g><g><rect class="cls-1" x="674.74" y="361.27" width="4.51" height="5.72"/><path class="cls-1" d="M680.88,368.63h-7.79v-9h7.79v9Zm-4.51-3.28h1.22v-2.43h-1.22v2.43Z"/></g><g><rect class="cls-1" x="678.05" y="348.94" width="4.51" height="5.72"/><path class="cls-1" d="M684.2,356.3h-7.79v-9h7.79v9Zm-4.51-3.28h1.22v-2.43h-1.22v2.43Z"/></g><g><rect class="cls-1" x="676.69" y="340.28" width="4.51" height="5.72"/><path class="cls-1" d="M682.84,347.64h-7.79v-9h7.79v9Zm-4.51-3.28h1.22v-2.43h-1.22v2.43Z"/></g><g><rect class="cls-1" x="674.98" y="330.8" width="4.51" height="5.72"/><path class="cls-1" d="M681.13,338.16h-7.79v-9h7.79v9Zm-4.51-3.28h1.22v-2.43h-1.22v2.43Z"/></g><g><rect class="cls-1" x="672.59" y="323.7" width="4.51" height="5.72"/><path class="cls-1" d="M678.74,331.06h-7.79v-9h7.79v9Zm-4.51-3.28h1.22v-2.43h-1.22v2.43Z"/></g><g><rect class="cls-1" x="674.56" y="316.03" width="4.51" height="5.72"/><path class="cls-1" d="M680.71,323.39h-7.79v-9h7.79v9Zm-4.51-3.28h1.22v-2.43h-1.22v2.43Z"/></g><g><rect class="cls-1" x="664.25" y="302.95" width="4.51" height="5.72"/><path class="cls-1" d="M670.4,310.3h-7.79v-9h7.79v9Zm-4.51-3.28h1.22v-2.43h-1.22v2.43Z"/></g><g><rect class="cls-1" x="660.33" y="291.97" width="4.51" height="5.72"/><path class="cls-1" d="M666.48,299.33h-7.79v-9h7.79v9Zm-4.51-3.28h1.22v-2.43h-1.22v2.43Z"/></g><g><rect class="cls-1" x="683.78" y="284.54" width="4.51" height="5.72"/><path class="cls-1" d="M689.93,291.9h-7.79v-9h7.79v9Zm-4.51-3.28h1.22v-2.43h-1.22v2.43Z"/></g><g><rect class="cls-1" x="675.11" y="275.08" width="4.51" height="5.72"/><path class="cls-1" d="M681.26,282.44h-7.79v-9h7.79v9Zm-4.51-3.28h1.22v-2.43h-1.22v2.43Z"/></g><g><rect class="cls-1" x="662.65" y="266.56" width="4.51" height="5.72"/><path class="cls-1" d="M668.8,273.91h-7.79v-9h7.79v9Zm-4.51-3.28h1.22v-2.43h-1.22v2.43Z"/></g><g><rect class="cls-1" x="685.57" y="260.04" width="4.51" height="5.72"/><path class="cls-1" d="M691.72,267.39h-7.79v-9h7.79v9Zm-4.51-3.28h1.22v-2.43h-1.22v2.43Z"/></g><g><rect class="cls-1" x="678.22" y="249.36" width="4.51" height="5.72"/><path class="cls-1" d="M684.37,256.71h-7.79v-9h7.79v9Zm-4.51-3.28h1.22v-2.43h-1.22v2.43Z"/></g><g><rect class="cls-1" x="674.67" y="240.28" width="4.51" height="5.72"/><path class="cls-1" d="M680.82,247.64h-7.79v-9h7.79v9Zm-4.51-3.28h1.22v-2.43h-1.22v2.43Z"/></g><g><rect class="cls-1" x="672.82" y="233.13" width="4.51" height="5.72"/><path class="cls-1" d="M678.97,240.48h-7.79v-9h7.79v9Zm-4.51-3.28h1.22v-2.43h-1.22v2.43Z"/></g><g><rect class="cls-1" x="682.3" y="227.12" width="4.51" height="5.72"/><path class="cls-1" d="M688.45,234.47h-7.79v-9h7.79v9Zm-4.51-3.28h1.22v-2.43h-1.22v2.43Z"/></g><g><rect class="cls-1" x="668.06" y="216.32" width="4.51" height="5.72"/><path class="cls-1" d="M674.21,223.68h-7.79v-9h7.79v9Zm-4.51-3.28h1.22v-2.43h-1.22v2.43Z"/></g><g><rect class="cls-1" x="677.27" y="205.95" width="4.51" height="5.72"/><path class="cls-1" d="M683.42,213.3h-7.79v-9h7.79v9Zm-4.51-3.28h1.22v-2.43h-1.22v2.43Z"/></g><g><rect class="cls-1" x="674.45" y="196.57" width="4.51" height="5.72"/><path class="cls-1" d="M680.59,203.93h-7.79v-9h7.79v9Zm-4.51-3.28h1.22v-2.43h-1.22v2.43Z"/></g><g><rect class="cls-1" x="676.85" y="187.2" width="4.51" height="5.72"/><path class="cls-1" d="M683,194.55h-7.79v-9h7.79v9Zm-4.51-3.28h1.22v-2.43h-1.22v2.43Z"/></g><g><rect class="cls-1" x="694.37" y="181.81" width="4.51" height="5.72"/><path class="cls-1" d="M700.51,189.17h-7.79v-9h7.79v9Zm-4.51-3.28h1.22v-2.43h-1.22v2.43Z"/></g><g><rect class="cls-1" x="692.66" y="171.56" width="4.51" height="5.72"/><path class="cls-1" d="M698.81,178.92h-7.79v-9h7.79v9Zm-4.51-3.28h1.22v-2.43h-1.22v2.43Z"/></g><g><rect class="cls-1" x="691.08" y="159.71" width="4.51" height="5.72"/><path class="cls-1" d="M697.23,167.06h-7.79v-9h7.79v9Zm-4.51-3.28h1.22v-2.43h-1.22v2.43Z"/></g><g><rect class="cls-1" x="693.98" y="147.73" width="4.51" height="5.72"/><path class="cls-1" d="M700.12,155.09h-7.79v-9h7.79v9Zm-4.51-3.28h1.22v-2.43h-1.22v2.43Z"/></g><g><rect class="cls-1" x="689.09" y="135.48" width="4.51" height="5.72"/><path class="cls-1" d="M695.24,142.84h-7.79v-9h7.79v9Zm-4.51-3.28h1.22v-2.43h-1.22v2.43Z"/></g><g><rect class="cls-1" x="680.15" y="125.14" width="4.51" height="5.72"/><path class="cls-1" d="M686.3,132.5h-7.79v-9h7.79v9Zm-4.51-3.28h1.22v-2.43h-1.22v2.43Z"/></g><g><rect class="cls-1" x="695.58" y="116.22" width="4.51" height="5.72"/><path class="cls-1" d="M701.73,123.57h-7.79v-9h7.79v9Zm-4.51-3.28h1.22v-2.43h-1.22v2.43Z"/></g><g><rect class="cls-1" x="676.8" y="109.79" width="4.51" height="5.72"/><path class="cls-1" d="M682.94,117.14h-7.79v-9h7.79v9Zm-4.51-3.28h1.22v-2.43h-1.22v2.43Z"/></g><g><rect class="cls-1" x="684.46" y="97.88" width="4.51" height="5.72"/><path class="cls-1" d="M690.61,105.23h-7.79v-9h7.79v9Zm-4.51-3.28h1.22v-2.43h-1.22v2.43Z"/></g><g><rect class="cls-1" x="691.59" y="87.57" width="4.51" height="5.72"/><path class="cls-1" d="M697.74,94.93h-7.79v-9h7.79v9Zm-4.51-3.28h1.22v-2.43h-1.22v2.43Z"/></g><g><rect class="cls-1" x="686.08" y="80.68" width="4.51" height="5.72"/><path class="cls-1" d="M692.23,88.03h-7.79v-9h7.79v9Zm-4.51-3.28h1.22v-2.43h-1.22v2.43Z"/></g><g><rect class="cls-1" x="679.02" y="69.84" width="4.51" height="5.72"/><path class="cls-1" d="M685.17,77.19h-7.79v-9h7.79v9Zm-4.51-3.28h1.22v-2.43h-1.22v2.43Z"/></g><g><rect class="cls-1" x="691.28" y="61.87" width="4.51" height="5.72"/><path class="cls-1" d="M697.43,69.23h-7.79v-9h7.79v9Zm-4.51-3.28h1.22v-2.43h-1.22v2.43Z"/></g><g><rect class="cls-1" x="681.3" y="54.31" width="4.51" height="5.72"/><path class="cls-1" d="M687.45,61.67h-7.79v-9h7.79v9Zm-4.51-3.28h1.22v-2.43h-1.22v2.43Z"/></g><g><rect class="cls-1" x="676.86" y="47.73" width="4.51" height="5.72"/><path class="cls-1" d="M683.01,55.08h-7.79v-9h7.79v9Zm-4.51-3.28h1.22v-2.43h-1.22v2.43Z"/></g><g><rect class="cls-1" x="682.38" y="35.06" width="4.51" height="5.72"/><path class="cls-1" d="M688.53,42.42h-7.79v-9h7.79v9Zm-4.51-3.28h1.22v-2.43h-1.22v2.43Z"/></g><g><rect class="cls-1" x="674.41" y="25.06" width="4.51" height="5.72"/><path class="cls-1" d="M680.56,32.42h-7.79v-9h7.79v9Zm-4.51-3.28h1.22v-2.43h-1.22v2.43Z"/></g><g><rect class="cls-1" x="678.32" y="16.32" width="4.51" height="5.72"/><path class="cls-1" d="M684.47,23.68h-7.79V14.68h7.79v9Zm-4.51-3.28h1.22v-2.43h-1.22v2.43Z"/></g><g><rect class="cls-1" x="689.25" y="4.65" width="4.51" height="5.72"/><path class="cls-1" d="M695.4,12.01h-7.79V3.01h7.79V12.01Zm-4.51-3.28h1.22v-2.43h-1.22v2.43Z"/></g></g><g><g><rect class="cls-1" x="638.25" y="436.43" width="4.51" height="5.72"/><path class="cls-1" d="M644.4,443.79h-7.79v-9h7.79v9Zm-4.51-3.28h1.22v-2.43h-1.22v2.43Z"/></g><g><rect class="cls-1" x="629.18" y="428.11" width="4.51" height="5.72"/><path class="cls-1" d="M635.33,435.47h-7.79v-9h7.79v9Zm-4.51-3.28h1.22v-2.43h-1.22v2.43Z"/></g><g><rect class="cls-1" x="633.27" y="421.65" width="4.51" height="5.72"/><path class="cls-1" d="M639.42,429.01h-7.79v-9h7.79v9Zm-4.51-3.28h1.22v-2.43h-1.22v2.43Z"/></g><g><rect class="cls-1" x="622.74" y="407.85" width="4.51" height="5.72"/><path class="cls-1" d="M628.89,415.21h-7.79v-9h7.79v9Zm-4.51-3.28h1.22v-2.43h-1.22v2.43Z"/></g><g><rect class="cls-1" x="634.31" y="396.03" width="4.51" height="5.72"/><path class="cls-1" d="M640.46,403.39h-7.79v-9h7.79v9Zm-4.51-3.28h1.22v-2.43h-1.22v2.43Z"/></g><g><rect class="cls-1" x="616.92" y="385.67" width="4.51" height="5.72"/><path class="cls-1" d="M623.07,393.02h-7.79v-9h7.79v9Zm-4.51-3.28h1.22v-2.43h-1.22v2.43Z"/></g><g><rect class="cls-1" x="615.72" y="377.21" width="4.51" height="5.72"/><path class="cls-1" d="M621.87,384.57h-7.79v-9h7.79v9Zm-4.51-3.28h1.22v-2.43h-1.22v2.43Z"/></g><g><rect class="cls-1" x="632.31" y="369.54" width="4.51" height="5.72"/><path class="cls-1" d="M638.46,376.89h-7.79v-9h7.79v9Zm-4.51-3.28h1.22v-2.43h-1.22v2.43Z"/></g><g><rect class="cls-1" x="629.41" y="362.67" width="4.51" height="5.72"/><path class="cls-1" d="M635.56,370.03h-7.79v-9h7.79v9Zm-4.51-3.28h1.22v-2.43h-1.22v2.43Z"/></g><g><rect class="cls-1" x="637.62" y="354.64" width="4.51" height="5.72"/><path class="cls-1" d="M643.77,362h-7.79v-9h7.79v9Zm-4.51-3.28h1.22v-2.43h-1.22v2.43Z"/></g><g><rect class="cls-1" x="635.72" y="342.75" width="4.51" height="5.72"/><path class="cls-1" d="M641.87,350.11h-7.79v-9h7.79v9Zm-4.51-3.28h1.22v-2.43h-1.22v2.43Z"/></g><g><rect class="cls-1" x="636.57" y="335.39" width="4.51" height="5.72"/><path class="cls-1" d="M642.71,342.75h-7.79v-9h7.79v9Zm-4.51-3.28h1.22v-2.43h-1.22v2.43Z"/></g><g><rect class="cls-1" x="637.02" y="327.85" width="4.51" height="5.72"/><path class="cls-1" d="M643.17,335.21h-7.79v-9h7.79v9Zm-4.51-3.28h1.22v-2.43h-1.22v2.43Z"/></g><g><rect class="cls-1" x="629.44" y="315.71" width="4.51" height="5.72"/><path class="cls-1" d="M635.59,323.07h-7.79v-9h7.79v9Zm-4.51-3.28h1.22v-2.43h-1.22v2.43Z"/></g><g><rect class="cls-1" x="639.47" y="303.5" width="4.51" height="5.72"/><path class="cls-1" d="M645.62,310.85h-7.79v-9h7.79v9Zm-4.51-3.28h1.22v-2.43h-1.22v2.43Z"/></g><g><rect class="cls-1" x="622.52" y="289.87" width="4.51" height="5.72"/><path class="cls-1" d="M628.67,297.23h-7.79v-9h7.79v9Zm-4.51-3.28h1.22v-2.43h-1.22v2.43Z"/></g><g><rect class="cls-1" x="632.02" y="279.88" width="4.51" height="5.72"/><path class="cls-1" d="M638.17,287.24h-7.79v-9h7.79v9Zm-4.51-3.28h1.22v-2.43h-1.22v2.43Z"/></g><g><rect class="cls-1" x="627.15" y="267.02" width="4.51" height="5.72"/><path class="cls-1" d="M633.3,274.38h-7.79v-9h7.79v9Zm-4.51-3.28h1.22v-2.43h-1.22v2.43Z"/></g><g><rect class="cls-1" x="626.71" y="256.86" width="4.51" height="5.72"/><path class="cls-1" d="M632.86,264.22h-7.79v-9h7.79v9Zm-4.51-3.28h1.22v-2.43h-1.22v2.43Z"/></g><g><rect class="cls-1" x="632.71" y="249.92" width="4.51" height="5.72"/><path class="cls-1" d="M638.86,257.27h-7.79v-9h7.79v9Zm-4.51-3.28h1.22v-2.43h-1.22v2.43Z"/></g><g><rect class="cls-1" x="635.94" y="242.2" width="4.51" height="5.72"/><path class="cls-1" d="M642.09,249.56h-7.79v-9h7.79v9Zm-4.51-3.28h1.22v-2.43h-1.22v2.43Z"/></g><g><rect class="cls-1" x="638.49" y="229.74" width="4.51" height="5.72"/><path class="cls-1" d="M644.64,237.1h-7.79v-9h7.79v9Zm-4.51-3.28h1.22v-2.43h-1.22v2.43Z"/></g><g><rect class="cls-1" x="643.29" y="219.11" width="4.51" height="5.72"/><path class="cls-1" d="M649.44,226.46h-7.79v-9h7.79v9Zm-4.51-3.28h1.22v-2.43h-1.22v2.43Z"/></g><g><rect class="cls-1" x="646.48" y="212.42" width="4.51" height="5.72"/><path class="cls-1" d="M652.63,219.78h-7.79v-9h7.79v9Zm-4.51-3.28h1.22v-2.43h-1.22v2.43Z"/></g><g><rect class="cls-1" x="636.47" y="198.77" width="4.51" height="5.72"/><path class="cls-1" d="M642.62,206.13h-7.79v-9h7.79v9Zm-4.51-3.28h1.22v-2.43h-1.22v2.43Z"/></g><g><rect class="cls-1" x="654.36" y="194.29" width="4.51" height="5.72"/><path class="cls-1" d="M660.51,201.65h-7.79v-9h7.79v9Zm-4.51-3.28h1.22v-2.43h-1.22v2.43Z"/></g><g><rect class="cls-1" x="629.17" y="183.45" width="4.51" height="5.72"/><path class="cls-1" d="M635.32,190.81h-7.79v-9h7.79v9Zm-4.51-3.28h1.22v-2.43h-1.22v2.43Z"/></g><g><rect class="cls-1" x="649.75" y="178.34" width="4.51" height="5.72"/><path class="cls-1" d="M655.9,185.7h-7.79v-9h7.79v9Zm-4.51-3.28h1.22v-2.43h-1.22v2.43Z"/></g><g><rect class="cls-1" x="638.77" y="165.13" width="4.51" height="5.72"/><path class="cls-1" d="M644.92,172.49h-7.79v-9h7.79v9Zm-4.51-3.28h1.22v-2.43h-1.22v2.43Z"/></g><g><rect class="cls-1" x="655" y="158.35" width="4.51" height="5.72"/><path class="cls-1" d="M661.15,165.71h-7.79v-9h7.79v9Zm-4.51-3.28h1.22v-2.43h-1.22v2.43Z"/></g><g><rect class="cls-1" x="636.29" y="146.13" width="4.51" height="5.72"/><path class="cls-1" d="M642.44,153.48h-7.79v-9h7.79v9Zm-4.51-3.28h1.22v-2.43h-1.22v2.43Z"/></g><g><rect class="cls-1" x="653.65" y="137.72" width="4.51" height="5.72"/><path class="cls-1" d="M659.8,145.08h-7.79v-9h7.79v9Zm-4.51-3.28h1.22v-2.43h-1.22v2.43Z"/></g><g><rect class="cls-1" x="634.36" y="129.64" width="4.51" height="5.72"/><path class="cls-1" d="M640.51,137h-7.79v-9h7.79v9Zm-4.51-3.28h1.22v-2.43h-1.22v2.43Z"/></g><g><rect class="cls-1" x="631.12" y="119.08" width="4.51" height="5.72"/><path class="cls-1" d="M637.27,126.44h-7.79v-9h7.79v9Zm-4.51-3.28h1.22v-2.43h-1.22v2.43Z"/></g><g><rect class="cls-1" x="644.59" y="107.8" width="4.51" height="5.72"/><path class="cls-1" d="M650.74,115.16h-7.79v-9h7.79v9Zm-4.51-3.28h1.22v-2.43h-1.22v2.43Z"/></g><g><rect class="cls-1" x="648.58" y="96.09" width="4.51" height="5.72"/><path class="cls-1" d="M654.72,103.45h-7.79v-9h7.79v9Zm-4.51-3.28h1.22v-2.43h-1.22v2.43Z"/></g><g><rect class="cls-1" x="636.93" y="90.4" width="4.51" height="5.72"/><path class="cls-1" d="M643.08,97.75h-7.79v-9h7.79v9Zm-4.51-3.28h1.22v-2.43h-1.22v2.43Z"/></g><g><rect class="cls-1" x="639.26" y="81.28" width="4.51" height="5.72"/><path class="cls-1" d="M645.41,88.64h-7.79v-9h7.79v9Zm-4.51-3.28h1.22v-2.43h-1.22v2.43Z"/></g><g><rect class="cls-1" x="646.21" y="70.8" width="4.51" height="5.72"/><path class="cls-1" d="M652.36,78.16h-7.79v-9h7.79v9Zm-4.51-3.28h1.22v-2.43h-1.22v2.43Z"/></g><g><rect class="cls-1" x="631.61" y="64.39" width="4.51" height="5.72"/><path class="cls-1" d="M637.76,71.74h-7.79v-9h7.79v9Zm-4.51-3.28h1.22v-2.43h-1.22v2.43Z"/></g><g><rect class="cls-1" x="633.88" y="51.99" width="4.51" height="5.72"/><path class="cls-1" d="M640.03,59.35h-7.79v-9h7.79v9Zm-4.51-3.28h1.22v-2.43h-1.22v2.43Z"/></g><g><rect class="cls-1" x="643.49" y="43.19" width="4.51" height="5.72"/><path class="cls-1" d="M649.64,50.55h-7.79v-9h7.79v9Zm-4.51-3.28h1.22v-2.43h-1.22v2.43Z"/></g><g><rect class="cls-1" x="633.82" y="36.68" width="4.51" height="5.72"/><path class="cls-1" d="M639.97,44.03h-7.79v-9h7.79v9Zm-4.51-3.28h1.22v-2.43h-1.22v2.43Z"/></g><g><rect class="cls-1" x="645.59" y="26.55" width="4.51" height="5.72"/><path class="cls-1" d="M651.74,33.91h-7.79v-9h7.79v9Zm-4.51-3.28h1.22v-2.43h-1.22v2.43Z"/></g><g><rect class="cls-1" x="649.48" y="16.19" width="4.51" height="5.72"/><path class="cls-1" d="M655.63,23.55h-7.79V14.55h7.79v9Zm-4.51-3.28h1.22v-2.43h-1.22v2.43Z"/></g><g><rect class="cls-1" x="646.99" y="4.91" width="4.51" height="5.72"/><path class="cls-1" d="M653.14,12.26h-7.79V3.26h7.79V12.26Zm-4.51-3.28h1.22v-2.43h-1.22v2.43Z"/></g></g><g><g><rect class="cls-1" x="577.52" y="379.85" width="4.51" height="5.72"/><path class="cls-1" d="M583.67,387.2h-7.79v-9h7.79v9Zm-4.51-3.28h1.22v-2.43h-1.22v2.43Z"/></g><g><rect class="cls-1" x="584.5" y="372.71" width="4.51" height="5.72"/><path class="cls-1" d="M590.65,380.06h-7.79v-9h7.79v9Zm-4.51-3.28h1.22v-2.43h-1.22v2.43Z"/></g><g><rect class="cls-1" x="590.05" y="361.25" width="4.51" height="5.72"/><path class="cls-1" d="M596.2,368.61h-7.79v-9h7.79v9Zm-4.51-3.28h1.22v-2.43h-1.22v2.43Z"/></g><g><rect class="cls-1" x="582.27" y="353.91" width="4.51" height="5.72"/><path class="cls-1" d="M588.42,361.27h-7.79v-9h7.79v9Zm-4.51-3.28h1.22v-2.43h-1.22v2.43Z"/></g><g><rect class="cls-1" x="585.42" y="345.97" width="4.51" height="5.72"/><path class="cls-1" d="M591.57,353.32h-7.79v-9h7.79v9Zm-4.51-3.28h1.22v-2.43h-1.22v2.43Z"/></g><g><rect class="cls-1" x="580.29" y="333.87" width="4.51" height="5.72"/><path class="cls-1" d="M586.44,341.23h-7.79v-9h7.79v9Zm-4.51-3.28h1.22v-2.43h-1.22v2.43Z"/></g><g><rect class="cls-1" x="601.12" y="323.73" width="4.51" height="5.72"/><path class="cls-1" d="M607.27,331.09h-7.79v-9h7.79v9Zm-4.51-3.28h1.22v-2.43h-1.22v2.43Z"/></g><g><rect class="cls-1" x="604.05" y="310.92" width="4.51" height="5.72"/><path class="cls-1" d="M610.2,318.28h-7.79v-9h7.79v9Zm-4.51-3.28h1.22v-2.43h-1.22v2.43Z"/></g><g><rect class="cls-1" x="580.31" y="298.29" width="4.51" height="5.72"/><path class="cls-1" d="M586.46,305.64h-7.79v-9h7.79v9Zm-4.51-3.28h1.22v-2.43h-1.22v2.43Z"/></g><g><rect class="cls-1" x="597.76" y="292.11" width="4.51" height="5.72"/><path class="cls-1" d="M603.91,299.47h-7.79v-9h7.79v9Zm-4.51-3.28h1.22v-2.43h-1.22v2.43Z"/></g><g><rect class="cls-1" x="595.76" y="281.07" width="4.51" height="5.72"/><path class="cls-1" d="M601.91,288.43h-7.79v-9h7.79v9Zm-4.51-3.28h1.22v-2.43h-1.22v2.43Z"/></g><g><rect class="cls-1" x="599.59" y="274.63" width="4.51" height="5.72"/><path class="cls-1" d="M605.74,281.98h-7.79v-9h7.79v9Zm-4.51-3.28h1.22v-2.43h-1.22v2.43Z"/></g><g><rect class="cls-1" x="606.39" y="266.34" width="4.51" height="5.72"/><path class="cls-1" d="M612.54,273.7h-7.79v-9h7.79v9Zm-4.51-3.28h1.22v-2.43h-1.22v2.43Z"/></g><g><rect class="cls-1" x="586.97" y="253.12" width="4.51" height="5.72"/><path class="cls-1" d="M593.12,260.48h-7.79v-9h7.79v9Zm-4.51-3.28h1.22v-2.43h-1.22v2.43Z"/></g><g><rect class="cls-1" x="594.08" y="247.12" width="4.51" height="5.72"/><path class="cls-1" d="M600.23,254.48h-7.79v-9h7.79v9Zm-4.51-3.28h1.22v-2.43h-1.22v2.43Z"/></g><g><rect class="cls-1" x="597.97" y="236.25" width="4.51" height="5.72"/><path class="cls-1" d="M604.12,243.6h-7.79v-9h7.79v9Zm-4.51-3.28h1.22v-2.43h-1.22v2.43Z"/></g><g><rect class="cls-1" x="602.28" y="227.26" width="4.51" height="5.72"/><path class="cls-1" d="M608.43,234.62h-7.79v-9h7.79v9Zm-4.51-3.28h1.22v-2.43h-1.22v2.43Z"/></g><g><rect class="cls-1" x="600.38" y="219.6" width="4.51" height="5.72"/><path class="cls-1" d="M606.53,226.95h-7.79v-9h7.79v9Zm-4.51-3.28h1.22v-2.43h-1.22v2.43Z"/></g><g><rect class="cls-1" x="597.57" y="211.76" width="4.51" height="5.72"/><path class="cls-1" d="M603.72,219.11h-7.79v-9h7.79v9Zm-4.51-3.28h1.22v-2.43h-1.22v2.43Z"/></g><g><rect class="cls-1" x="609.19" y="205.33" width="4.51" height="5.72"/><path class="cls-1" d="M615.34,212.68h-7.79v-9h7.79v9Zm-4.51-3.28h1.22v-2.43h-1.22v2.43Z"/></g><g><rect class="cls-1" x="597.16" y="195.45" width="4.51" height="5.72"/><path class="cls-1" d="M603.31,202.81h-7.79v-9h7.79v9Zm-4.51-3.28h1.22v-2.43h-1.22v2.43Z"/></g><g><rect class="cls-1" x="614.29" y="185.19" width="4.51" height="5.72"/><path class="cls-1" d="M620.44,192.55h-7.79v-9h7.79v9Zm-4.51-3.28h1.22v-2.43h-1.22v2.43Z"/></g><g><rect class="cls-1" x="591.94" y="171.6" width="4.51" height="5.72"/><path class="cls-1" d="M598.09,178.96h-7.79v-9h7.79v9Zm-4.51-3.28h1.22v-2.43h-1.22v2.43Z"/></g><g><rect class="cls-1" x="616.98" y="162.98" width="4.51" height="5.72"/><path class="cls-1" d="M623.13,170.34h-7.79v-9h7.79v9Zm-4.51-3.28h1.22v-2.43h-1.22v2.43Z"/></g><g><rect class="cls-1" x="595.54" y="147.98" width="4.51" height="5.72"/><path class="cls-1" d="M601.69,155.34h-7.79v-9h7.79v9Zm-4.51-3.28h1.22v-2.43h-1.22v2.43Z"/></g><g><rect class="cls-1" x="600.94" y="138.99" width="4.51" height="5.72"/><path class="cls-1" d="M607.08,146.35h-7.79v-9h7.79v9Zm-4.51-3.28h1.22v-2.43h-1.22v2.43Z"/></g><g><rect class="cls-1" x="591.59" y="128.71" width="4.51" height="5.72"/><path class="cls-1" d="M597.74,136.07h-7.79v-9h7.79v9Zm-4.51-3.28h1.22v-2.43h-1.22v2.43Z"/></g><g><rect class="cls-1" x="615.16" y="119.64" width="4.51" height="5.72"/><path class="cls-1" d="M621.31,127h-7.79v-9h7.79v9Zm-4.51-3.28h1.22v-2.43h-1.22v2.43Z"/></g><g><rect class="cls-1" x="614.58" y="111.26" width="4.51" height="5.72"/><path class="cls-1" d="M620.73,118.62h-7.79v-9h7.79v9Zm-4.51-3.28h1.22v-2.43h-1.22v2.43Z"/></g><g><rect class="cls-1" x="611.99" y="101.17" width="4.51" height="5.72"/><path class="cls-1" d="M618.14,108.53h-7.79v-9h7.79v9Zm-4.51-3.28h1.22v-2.43h-1.22v2.43Z"/></g><g><rect class="cls-1" x="610.58" y="92.67" width="4.51" height="5.72"/><path class="cls-1" d="M616.73,100.02h-7.79v-9h7.79v9Zm-4.51-3.28h1.22v-2.43h-1.22v2.43Z"/></g><g><rect class="cls-1" x="602.89" y="83.47" width="4.51" height="5.72"/><path class="cls-1" d="M609.04,90.83h-7.79v-9h7.79v9Zm-4.51-3.28h1.22v-2.43h-1.22v2.43Z"/></g><g><rect class="cls-1" x="607.4" y="73.31" width="4.51" height="5.72"/><path class="cls-1" d="M613.55,80.67h-7.79v-9h7.79v9Zm-4.51-3.28h1.22v-2.43h-1.22v2.43Z"/></g><g><rect class="cls-1" x="593.75" y="62.38" width="4.51" height="5.72"/><path class="cls-1" d="M599.9,69.74h-7.79v-9h7.79v9Zm-4.51-3.28h1.22v-2.43h-1.22v2.43Z"/></g><g><rect class="cls-1" x="608.87" y="50.08" width="4.51" height="5.72"/><path class="cls-1" d="M615.02,57.44h-7.79v-9h7.79v9Zm-4.51-3.28h1.22v-2.43h-1.22v2.43Z"/></g><g><rect class="cls-1" x="592.79" y="43.96" width="4.51" height="5.72"/><path class="cls-1" d="M598.94,51.32h-7.79v-9h7.79v9Zm-4.51-3.28h1.22v-2.43h-1.22v2.43Z"/></g><g><rect class="cls-1" x="587.03" y="37.7" width="4.51" height="5.72"/><path class="cls-1" d="M593.18,45.06h-7.79v-9h7.79v9Zm-4.51-3.28h1.22v-2.43h-1.22v2.43Z"/></g><g><rect class="cls-1" x="588.8" y="29.59" width="4.51" height="5.72"/><path class="cls-1" d="M594.95,36.95h-7.79v-9h7.79v9Zm-4.51-3.28h1.22v-2.43h-1.22v2.43Z"/></g><g><rect class="cls-1" x="608.02" y="20.68" width="4.51" height="5.72"/><path class="cls-1" d="M614.17,28.03h-7.79v-9h7.79v9Zm-4.51-3.28h1.22v-2.43h-1.22v2.43Z"/></g><g><rect class="cls-1" x="608.83" y="13.14" width="4.51" height="5.72"/><path class="cls-1" d="M614.98,20.5h-7.79V11.5h7.79v9Zm-4.51-3.28h1.22v-2.43h-1.22v2.43Z"/></g><g><rect class="cls-1" x="606.4" y="5.01" width="4.51" height="5.72"/><path class="cls-1" d="M612.55,12.37h-7.79V3.37h7.79V12.37Zm-4.51-3.28h1.22v-2.43h-1.22v2.43Z"/></g></g></g><path class="cls-1" d="M282.78,4.57c-24.21-17.71-76,17.65-115.68,78.97-5.59,8.64-10.64,17.33-15.12,25.94-1.86,3.58-6.98,3.58-8.84,0-4.48-8.61-9.53-17.31-15.12-25.94C88.33,22.21,36.54-13.14,12.33,4.57-11.88,22.28,.66,86.35,40.34,147.68c22.22,34.35,48.24,60.53,71.08,73.81,3.7,2.15,3.08,7.69-.98,9.03-13.11,4.34-21.48,10.93-21.48,18.32s7.6,13.36,19.67,17.7c4.34,1.56,4.34,7.73,.03,9.35-11.46,4.32-18.63,10.48-18.63,17.32s7.38,13.18,19.14,17.51c4.32,1.59,4.32,7.76,0,9.35-11.76,4.33-19.14,10.57-19.14,17.51s7.38,13.18,19.14,17.51c4.32,1.59,4.32,7.76,0,9.35-11.76,4.33-19.14,10.57-19.14,17.51s7.38,13.18,19.14,17.51c4.32,1.59,4.32,7.76,0,9.35-11.76,4.33-19.14,10.57-19.14,17.51,0,13.08,26.23,23.68,58.59,23.68s58.59-10.6,58.59-23.68c0-6.94-7.38-13.18-19.14-17.51-4.32-1.59-4.32-7.76,0-9.35,11.76-4.33,19.14-10.57,19.14-17.51s-7.38-13.18-19.14-17.51c-4.32-1.59-4.32-7.76,0-9.35,11.76-4.33,19.14-10.57,19.14-17.51s-7.38-13.18-19.14-17.51c-4.32-1.59-4.32-7.76,0-9.35,11.76-4.33,19.14-10.57,19.14-17.51s-7.6-13.36-19.67-17.7c-4.34-1.56-4.34-7.73-.03-9.35,11.46-4.32,18.63-10.48,18.63-17.31,0-7.39-8.37-13.98-21.48-18.32-4.06-1.34-4.68-6.88-.98-9.03,22.85-13.29,48.86-39.47,71.08-73.81,39.68-61.33,52.22-125.4,28.01-143.11Z"/></g></g></svg>