<?xml version="1.0" encoding="UTF-8"?><svg xmlns="http://www.w3.org/2000/svg" viewBox="0 0 1366 450"><defs><style>.cls-1{fill:#fff;}</style></defs><g id="BG"><rect x="-5809.4" y="-6123.91" width="13818.27" height="9075.32"/></g><g id="Layer_1"><g><path class="cls-1" d="M82.03,45.63c-1.54,.07-3.01-.65-3.96-1.86-4.1-5.24-16.43-21.47-18.54-29.7-2.54-9.91,1.86-12.85,11.11-12.6,11.38,.31,22.55,2.06,28.93,3.55,4.26,1,8.59,3.62,9.94,9.79,1.23,5.61,3.67,15.86-9.28,46.79-12.95,30.92-14.58,53.67-11.05,77.75,3.53,24.08,10.83,52.27,10.56,64.34s-3.42,20.62-9.84,35.03c-6.13,13.76-12.29,24.1-7.82,39.13,4.47,15.03,13.88,26.03-9.23,39.61-23.1,13.58-34.97,21.38-41.41,38.51-6.42,17.07,2.23,32.29,11.13,44.33,7.79,10.55,19.72,23.53,29.4,33.7,11.39,11.96-7.01,14.16-16.09,15.13-9.97,1.06-39.83,4.08-48.66-13.96-6.02-12.29-13.45-33.19,1.75-68.97,15.21-35.78,45.46-46.86,59.15-87.62,13.69-40.76-5.55-58.44-14.01-39.31-3.51,7.93-22.61,54.23-38.93,50.99-16.32-3.24-13.34-44.63-6.82-67.67,6.53-23.04,32.57-70.32,36.68-94.76s-6.06-30.98-10.44-39.68-5.87-19.64,3.55-28.47c9.42-8.83,20.05-17.48,7.35-25.09-11.08-6.64-22.57,.35-31.96-10.32C4.11,13.55,12.93,1,23.43,.1c8.91-.77,15.29,3.12,19.56,9.26,4.26,6.14,21.98,32.32,26.34,40.12s4.73,19.02-1.64,38.79c-6.37,19.77-28.97,80.51-36.08,99.15-7.11,18.64-16.85,47.05-7.74,57.01,9.12,9.96,31.74-16.02,37.36-26.19,5.61-10.17,6.24-17.74-.67-34.16-7.84-18.63-6.39-47.86,13.4-87.84,19.78-39.97,22.54-44.61,25.75-54.55,3.21-9.94,6.7-23.26-3.46-30.94-10.16-7.68-13.3,7.03-8.15,16.58,4.67,8.65,1.92,17.96-6.06,18.31Z"/><path class="cls-1" d="M1365.93,437.5h-249.04c-18.94,0-34.3-15.36-34.3-34.3V54.42c0-23.15,18.77-41.92,41.92-41.92h241.41V186.46c0,16.97-19.5,26.52-32.91,16.12l-204.21-137.3,203.72,336.17-136.59-270.43c-3.52-6.97,5.24-13.63,11.01-8.37l158.98,144.73v170.11Z"/><path class="cls-1" d="M265.23,196.42c-7.79,10.74-15.24,22.67-20.32,34.59-6.36,15.51-9.59,28.43-6.77,42.35,1.51,6.84,4.97,10.76,10.43,13.91,6.54,4.19,14.37,6.63,23.23,8.28,10.29,1.92,22.94,2.7,36.32,2.14,20.2-.77,42.47-4.32,62.56-9.64,42.65-10.38,78.46-37.03,103.24-72.43,31.02-43.67,46.54-97.89,51.62-152.15,.25-5.58,1.47-11.25,4.1-16.39,3.3-6.54,7.84-11.99,13.32-17.16,3.57-3.32,7.56-6.51,11.6-9.31,4.08-2.9,9.42-5.59,13.61-8.03,32.62-18.15,72.69-16.42,101.82,3.74,18.05,13.46,28.37,33.81,26.74,56.08-2.09,99.54-36.68,202.38-108.16,275.16-41.43,42.74-95.03,73.89-152.73,88.5-86.26,21.49-202.48,24.04-275.07-35.48-73.41-61.26-70.99-163.94-14.03-234.19,14.26-17.9,31.24-33.46,50.11-46.18,50.9-31.88,104.92,29.78,68.39,76.22h0Z"/><path class="cls-1" d="M996.31,21.53c-22.41,48.05-50.4,100.37-73.45,148.08-23.75,49.16-44.5,99.8-62.21,151.43-1.48,4.35-2.94,8.72-4.38,13.09-6.63-66.33-8.75-133.11-5.66-199.7,1.43-32.54,3.78-65.01,7.15-97.35,1.03-10-3.82-20.15-13.15-25.38-12.53-7.02-28.37-2.56-35.39,9.97-29,51.09-56.58,104.2-84.02,156.12-5.37,9.96-11.55,20.86-17,30.71-27.56,47.46-53.56,98.05-79.17,146.09-12.69,22.78-.77,52.59,24.22,60.21,22.14,7.02,45.79-5.24,52.81-27.38,14.18-44.31,29.29-87.46,47.91-130.07,15.14-36.02,31.78-71.52,48.98-106.7,1.46,94.84,9.94,189.6,26.86,282.93,1.25,7.67,7.04,14.18,15.09,15.97,10.56,2.34,21.02-4.32,23.36-14.88,7.58-34.27,16.85-68.2,28.18-101.43,22.68-66.38,52.64-130.57,90.89-189.43,14.53-21.95,30.52-42.98,48.2-62.51,5.9-6.52,12.02-12.87,18.47-18.93,3.34-3.16,6.26-7.14,8.25-11.6,17.76-44.73-44.96-72.22-65.94-29.23Z"/></g></g></svg>