<?xml version="1.0" encoding="UTF-8"?><svg xmlns="http://www.w3.org/2000/svg" viewBox="0 0 1366 450"><defs><style>.cls-1{fill:#fff;}</style></defs><g id="BG"><rect x="-4269.4" y="-6123.91" width="13818.27" height="9075.32"/></g><g id="Layer_1"><g><g><path class="cls-1" d="M1357.84,151.41C1337.58,63.3,1281.82,0,1216.2,0,1133.46,0,1066.39,100.6,1066.39,224.71c0,35.42,5.47,68.92,15.2,98.71l32.08-45.46c55.99-79.35,147.05-126.55,244.17-126.55h0Z"/><path class="cls-1" d="M1353.48,219.9c-4.62-3.38-10.23-4.85-16.56-4.61v-.03h-112.77v35.95h51.08c-13.45,13.31-26.9,29.85-39.2,48.86-40.29,62.26-53.02,127.31-28.44,145.29,24.58,17.98,77.16-17.92,117.45-80.18,40.29-62.26,53.02-127.31,28.44-145.29Z"/></g><path class="cls-1" d="M647.8,74.04l-.84,2.55c5,1.92,8.33,5.74,8.33,10.85,0,4.47-2.5,8.3-7.49,10.21l.83,4.47c3.33-1.92,8.33-2.55,12.49-2.55,14.99,0,26.65,8.94,26.65,20.43,0,7.02-4.17,12.77-10.83,16.6,1.67,2.55,2.5,5.11,2.5,8.3,0,11.49-11.66,20.43-26.65,20.43h-4.16c0,5.74-3.33,10.85-7.5,14.68,2.5,3.19,4.17,7.02,4.17,11.49,0,1.92,0,4.47-.84,6.38,9.99,2.55,16.66,9.57,17.49,17.87,14.16,1.28,24.15,9.57,24.15,20.43,0,11.49-11.66,20.43-26.65,20.43-4.17,7.66-13.32,12.77-24.98,12.77-4.17,0-8.33-.64-11.66-1.92l-1.66,1.28c10.83,2.55,17.49,10.21,17.49,19.15,0,5.11-2.5,10.21-6.66,13.4,9.16,3.19,14.99,10.21,14.99,18.51,0,4.47-1.66,8.94-5,12.13,12.49,1.92,21.66,10.21,21.66,20.43,0,8.94-7.5,16.6-17.49,19.15l.83,3.83c0,3.19-1.66,6.38-4.16,8.3,12.49,1.91,22.48,10.21,22.48,20.43,0,1.91,0,3.19-.83,5.1,14.99,.64,25.82,8.94,25.82,20.43s-11.66,20.43-26.65,20.43-26.65-8.94-26.65-20.43c0-1.91,0-3.19,.83-5.1-11.66,0-21.65-6.38-24.99-14.68-2.49,.64-5.83,1.28-9.16,1.28-14.99,0-26.65-8.94-26.65-20.43,0-9.57,7.5-17.23,18.32-19.79-3.33-1.92-5-5.11-5-8.94v-2.55c-12.49-1.92-21.65-10.21-21.65-20.43,0-3.19,.83-6.38,2.5-8.94-6.66-3.83-10.83-9.57-10.83-16.6,0-8.3,5.83-14.68,14.16-17.87-13.32-1.92-22.48-10.21-22.48-20.43s9.16-18.51,22.48-20.43c0-6.38,4.17-11.49,9.99-15.32-5.83-3.83-9.99-9.57-9.99-15.96,0-10.21,9.16-18.51,22.48-20.43-3.33-3.19-4.99-7.02-4.99-11.49,0-5.11,2.5-10.21,6.66-14.04l-2.5-3.19h-1.66c-14.99,0-26.65-8.94-26.65-20.43,0-5.74,3.33-11.49,8.33-14.68-9.99-3.19-16.66-10.21-16.66-19.15,0-11.49,11.66-20.43,26.65-20.43,2.5,0,5,0,7.5,.64l.84-3.83c-2.5-2.55-4.17-5.11-4.17-8.94s1.67-7.02,5-9.58c-.83-1.92-1.67-5.11-1.67-7.66,0-1.92,.84-4.47,1.67-6.38-.83-1.92-1.67-4.47-1.67-6.38-14.99-.64-25.81-8.94-25.81-20.43s11.66-20.43,26.65-20.43h.83c5.83-7.02,15.82-12.13,28.31-12.13,9.99,0,18.32,3.19,24.16,7.66,0-7.02,6.66-12.13,15.82-12.13s15.82,5.11,15.82,12.13c0,7.66-6.66,12.13-15.82,12.13-3.33,0-6.66-.64-8.33-1.92,0,2.55,.84,4.47,.84,7.02s-.84,4.47-.84,7.02l5.83-.64c14.99,0,26.65,8.94,26.65,20.43s-11.66,20.43-26.65,20.43c-5,0-9.16-.64-13.32-2.55Zm-31.65,297.45c-.84,0-.84,.64,0,.64v-.64Zm81.61,36.21c9.16,0,15.82,5.11,15.82,12.13s-6.66,12.13-15.82,12.13-15.82-5.11-15.82-12.13,6.66-12.13,15.82-12.13Zm0-68.13c10.83,0,19.99,4.47,24.15,12.13,5-3.19,10.83-5.11,17.49-5.11,9.16,0,16.66,3.19,21.65,8.3,3.33-1.28,7.49-1.91,11.66-1.91h2.5c-2.5-3.19-4.17-7.02-4.17-11.49,0-5.74,2.5-10.21,6.66-14.04-9.16-3.19-14.99-10.21-14.99-18.51,0-7.02,4.17-12.77,10.83-16.6-1.66-2.55-2.5-5.11-2.5-8.3,0-7.02,4.17-12.77,10.83-16.6-1.66-2.55-2.5-5.11-2.5-8.3,0-6.38,4.17-12.13,9.99-15.96-5.83-3.83-9.99-9.57-9.99-15.96-9.99-2.55-17.49-10.21-17.49-19.15,0-5.75,3.33-11.49,8.33-15.32,.83-4.47,2.5-8.3,6.66-11.49-9.99-3.19-15.82-10.21-15.82-18.51,0-11.49,11.66-20.43,26.65-20.43h2.5c-2.5-3.19-4.17-7.02-4.17-11.49,0-8.94,6.66-16.6,17.49-19.15-10.83-2.55-17.49-10.21-17.49-19.15,0-1.91,0-3.19,.83-5.1-14.99-.64-25.81-8.94-25.81-20.43,0-1.92,0-3.19,.83-5.11-14.99-.64-25.82-8.94-25.82-20.43s11.66-20.43,26.65-20.43c2.5,0,4.17,0,6.66,.64,.83-11.49,11.66-19.79,26.65-19.79s26.65,8.94,26.65,20.43-11.66,20.43-26.65,20.43c-2.5,0-4.17,0-6.66-.64l-.83,4.47c14.99,.64,25.82,8.94,25.82,20.43,0,1.91,0,3.19-.84,5.1,14.99,.64,25.82,8.94,25.82,20.43,0,8.94-6.66,16.6-17.49,19.15,10.83,2.55,17.49,10.21,17.49,19.15,0,11.49-11.66,20.43-26.65,20.43h-2.5c2.5,3.19,4.17,7.02,4.17,11.49,0,5.11-2.5,9.58-6.66,13.4,9.99,3.19,15.82,10.21,15.82,18.51l-.83,3.83h.83c11.66,0,19.99,6.38,19.99,15.32,0,2.55-.84,5.11-2.5,7.02,9.99,3.19,16.66,10.21,16.66,19.15,0,10.85-10.83,19.79-24.99,20.43-.83,6.38-4.16,11.49-10.83,15.32,1.67,2.55,2.5,5.11,2.5,8.3,0,1.92,0,3.19-.83,5.11,14.99,.64,25.82,8.94,25.82,20.43s-11.66,20.43-26.65,20.43h-2.5c2.5,3.19,4.16,7.02,4.16,11.49,0,11.49-11.66,20.43-26.65,20.43h-3.33c2.5,2.55,4.17,6.38,5,10.21,1.67-.64,4.17-.64,6.66-.64,14.99,0,26.65,8.94,26.65,20.43,0,3.83-1.66,7.66-3.33,10.21h2.5c9.16,0,15.82,5.11,15.82,12.13s-6.66,12.13-15.82,12.13-15.82-5.11-15.82-12.13l.84-3.83c-3.33,1.28-6.66,1.92-10.83,1.92-2.49,0-5.83,0-8.33-.64-3.33,7.66-13.32,13.4-24.98,13.4-14.99,0-26.65-8.94-26.65-20.43v-1.92c-4.17,1.92-9.16,3.19-14.99,3.19-14.99,0-26.65-8.94-26.65-20.43,0-1.91,0-3.83,.84-5.74-2.5,.64-5,.64-7.5,.64-14.99,0-26.65-8.94-26.65-20.43s11.66-20.43,26.65-20.43Zm140.74-178.72c9.16,0,15.82,5.11,15.82,12.13s-6.66,12.13-15.82,12.13-15.82-5.11-15.82-12.13,6.66-12.13,15.82-12.13Z"/><path class="cls-1" d="M880.63,148.63c32.76,45.2,46.01,102.42,51.35,157.13,2.85,29.21,4.55,59.44,1.58,88.7-.78,7.67-2.02,15.26-4.05,22.7-1.75,6.41-3.78,13.91-8.11,19.12-3.88,4.67-9.19,.52-12.22-3.22-4.81-5.94-6.48-14.1-7.34-21.52-1.81-15.78-1.73-31.99-1.47-47.85,.27-16.05,1.31-32.1,3.4-48.01,3.91-29.8,11.64-59.54,25.42-86.37,6.08-11.85,13.31-23.08,22.1-33.11,7.96-9.08,19.17-20.63,32.21-20.45,12.45,.17,20.78,11.92,25.71,22.02,6.18,12.67,9.78,26.6,12.96,40.27,13.7,58.9,13.36,121.75-1.12,180.48-1.81,7.33-3.86,14.59-6.11,21.79-.95,3.04,1.17,5.12,4.17,4.79,3.33-.36,6.63-3.5,7.61-6.61,19.84-63.41,22.84-132.29,9.65-197.35-3.13-15.44-6.82-31.16-12.99-45.71-4.8-11.32-11.83-23.86-23.7-28.94-14.32-6.13-29.56,1.3-40.9,10.12s-21.07,20.8-29.16,32.93c-37.43,56.13-44.01,128.22-40.91,193.88,.68,14.5,1.23,33.35,13.92,43.02,12.83,9.78,26.5-2.36,32.35-13.99,14.53-28.88,12.86-64.9,11.65-96.29-2.36-61.21-12.35-125.37-43.58-179.03-3.57-6.14-7.46-12.08-11.63-17.84-3.49-4.82-14.41,4.32-10.76,9.35h0Z"/><path class="cls-1" d="M414.03,12.5V46.68c0,23.67-19.19,42.87-42.87,42.87h-18.54v107.19c0,23.67-19.19,42.87-42.87,42.87h0c-23.67,0-42.87-19.19-42.87-42.87v-67.38h-75.19c-23.67,0-42.87-19.19-42.87-42.87V12.5H0v120.01H3.35c23.67,0,42.87,19.19,42.87,42.87v64.22h18.48c23.67,0,42.87,19.19,42.87,42.87v155.03H404.72v-155.03c0-23.67,19.19-42.87,42.87-42.87h36.63v-107.19c0-23.67,19.19-42.87,42.87-42.87h9.85V12.5h-122.9Z"/></g></g></svg>