<?xml version="1.0" encoding="UTF-8"?><svg xmlns="http://www.w3.org/2000/svg" viewBox="0 0 1366 450"><defs><style>.cls-1{fill:#fff;}</style></defs><g id="BG"><rect x="-4269.4" y="-4879.91" width="13818.27" height="9075.32"/></g><g id="Layer_1"><g><path class="cls-1" d="M998.79,34.58c-3.07-1.8-6.17-.42-8.14,2.14-14.54,18.84-26.61,39.47-36.73,60.98-10.61,22.56-19.24,46.01-26.54,69.83-7.33,23.92-13.35,48.22-18.75,72.64-3.43,15.53-6.61,31.12-9.7,46.73,2.64-17.14,5.79-34.2,9.5-51.16,5.63-25.75,12.48-51.22,20.51-76.33,7.9-24.71,17.27-48.79,26.97-72.84,5.26-13.04,9.92-26.28,11.68-40.3,1.87-14.97-.58-29.71-6.94-43.37-1.93-4.14-8.2-3.61-10.28,0-12.93,22.48-23.89,46.08-32.97,70.37-.38,.24-.73,.52-1.01,.88-15.35,19.81-27.82,41.41-37.14,64.69-8.85,22.11-14.53,45.34-17.71,68.92-3.26,24.26-3.92,48.78-2.61,73.21,1.21,22.47,4,44.86,7.83,67.03-1.7,9.55-3.57,19.09-5.05,28.68-5.89-9.47-11.77-18.94-17.66-28.41-18.49-29.75-36.98-59.49-55.47-89.24-10.48-16.86-20.96-33.71-31.43-50.57-1.56-2.5-4.7-3.64-7.43-2.44-2.48,1.09-4.54,4.22-3.45,7.02,5.19,13.35,10.88,26.51,17,39.46-6.93-10.52-13.73-21.12-20.39-31.8-1.41-2.26-2.8-4.54-4.19-6.8-1.38-13.83-2.97-27.64-4.8-41.42-.42-3.19-2.43-5.95-5.95-5.95-2.89,0-6.38,2.74-5.95,5.95,.76,5.75,1.48,11.51,2.16,17.27-3.55-6.02-7.07-12.07-10.53-18.14-1.3-2.28-4.2-3.43-6.72-2.74-2.31,.63-4.68,3.19-4.37,5.74,5.57,46.02,13.08,91.78,22.42,137.18,.98,14.45,1.95,28.9,2.93,43.35l2.95,43.66c.19,2.8,2.02,5.26,4.73,5.83,.85,9.63,1.71,19.25,2.56,28.88,.28,3.2,2.53,5.95,5.95,5.95,3.01,0,6.23-2.73,5.95-5.95-1.3-15.26-2.59-30.52-3.89-45.78,.57,.09,1.14,.12,1.71,.03,2.62-.39,5.54-2.87,5.16-5.85-2.83-21.93-5.66-43.87-8.49-65.8-.02-1.63-.04-3.26-.07-4.89-.43-23.77-1.59-47.52-3.44-71.21,5.37,8.42,10.81,16.79,16.35,25.11,19.63,29.48,40.26,58.29,61.76,86.43,12.65,16.57,25.59,32.92,38.8,49.05,.49,.6,1.12,1.03,1.81,1.31,.13,4.25,.56,8.5,1.39,12.74,2.48,12.69,8.92,24.05,17.52,33.6,3.48,3.87,10.23,.79,10.16-4.21,0-.43-.01-.85-.02-1.28l.47,.75c3.5,5.63,12.75,2.06,10.88-4.59-4.12-14.61-7.99-29.3-11.52-44.07,.23-.43,.42-.9,.55-1.43,5.37-22.62,9.91-45.43,14.38-68.24,4.71-24.07,9.32-48.16,14.46-72.14,5.24-24.47,11.03-48.84,18.03-72.88,6.76-23.22,14.89-46.82,24.45-68.33,9.68-21.79,21.22-42.82,35.23-62.15,1.7-2.35,3.45-4.67,5.22-6.97,1.97-2.55,.39-6.67-2.14-8.14Zm-122.13,389.62c-.44-.97-.85-1.95-1.23-2.94,.41,.66,.81,1.31,1.22,1.97,0,.32,0,.65,.01,.97ZM955.86,44.8c-1.24,11.2-5.28,22.92-9.48,33.71-4.61,11.83-9.61,23.51-14.11,35.38-4.64,12.23-9,24.56-13.06,36.99-4.98,15.23-9.51,30.6-13.6,46.08,1.88-10.6,3.76-21.19,5.64-31.79,4.63-26.09,9.25-52.18,13.88-78.27,8.03-22.96,17.71-45.22,29.26-66.67,2,7.97,2.42,16.21,1.49,24.59Zm-83.77,174.39c.63-6.13,1.26-10.97,2.2-16.88,.92-5.75,2-11.48,3.26-17.18,2.49-11.35,5.67-22.55,9.56-33.5,4.54-12.78,10.22-25.3,16.9-37.34-4.94,17.48-9.02,35.21-12.38,53.07-5.44,28.96-9.02,58.27-11.34,87.64-.71,8.93-1.28,17.88-1.77,26.83-1.57,8.83-3.13,17.66-4.7,26.49-.15,.84-.3,1.69-.45,2.53-.74-6.57-1.38-13.18-1.88-19.85-1.78-23.89-1.85-47.95,.6-71.8Zm.23,167.06c.06-.52,.13-1.03,.19-1.55,.02-.19,.04-.32,.05-.43,.02-.11,.04-.25,.07-.46,.15-1.03,.3-2.05,.46-3.07,.02-.1,.03-.19,.05-.29,1.05,4.82,2.12,9.63,3.25,14.43,.01,1.81,.02,3.63,.04,5.44-1.56-2.51-3.13-5.03-4.69-7.54,.14-2.18,.34-4.35,.59-6.52Z"/><path class="cls-1" d="M1365.29,241.61c-4.14-24.67-27.5-41.31-52.17-37.16-7.18,1.21-14.66,1.66-22.3,1.65-10.53-.03-21.38-.93-31.95-2.35-8.79-1.21-17.61-2.72-25.94-5.94-3.6-1.44-7.37-2.91-10.47-5.26-9.32-7.8-21.6-12.28-34.69-11.54-61.51,5.94-60.56,88.96-5.8,98.17-35.28,28.98-73,54.14-117.12,33.62-25.69-13.96-30.88-51.42-30.48-78.6,.28-50.63,25.16-112.94,67.33-141.74,9.65-6.53,21.8-12.08,32.7-13.14,25.56-3.08,48.66,12.66,63.3,33.19,16.29,23.56,52.09,25.44,70.62,3.46,16.26-18.75,14.25-47.13-4.5-63.4-31.43-28.34-72.57-49.67-116.31-48.86-42.19,.28-81.14,21.31-109.2,51.29-30.25,31.2-49.62,72.17-65.5,110.33-31.35,74.6-29.91,179.8,48.78,224.43,33.41,18.7,74.09,23.72,111.34,15.37,23.65-5.15,45.41-15.74,65.46-28.97,.01,4.79,.14,9.61,.42,14.45,.53,7.31,1.4,14.99,3.53,23.87,14.94,53.18,91.57,34.74,80.9-19.3-1.65-6.52-1.81-15.65-1.69-23.41,.51-19.08,3.61-39.78,8.03-58.62,1.78-7.41,3.92-15.28,6.45-22.37,5.83,.99,11.48,1.97,16.63,2.9,30.19,5.81,58.17-21.75,52.62-52.1Z"/><polygon class="cls-1" points="265.62 10.38 265.62 63.5 265.62 67.75 265.62 116.62 265.62 120.88 265.62 169.75 265.62 174 265.62 222.88 216.75 222.88 216.75 169.75 163.62 169.75 163.62 120.88 163.62 116.62 163.62 63.5 110.5 63.5 110.5 10.38 57.38 10.38 53.12 10.38 0 10.38 0 67.75 53.12 67.75 53.12 120.88 106.25 120.88 106.25 169.75 106.25 174 106.25 227.12 159.38 227.12 159.38 280.25 212.5 280.25 212.5 329.12 159.38 329.12 159.38 382.25 106.25 382.25 106.25 439.62 159.38 439.62 163.62 439.62 212.5 439.62 216.75 439.62 269.88 439.62 269.88 386.5 269.88 382.25 269.88 333.38 269.88 329.12 269.88 280.25 323 280.25 323 227.12 323 222.88 323 174 323 169.75 323 120.88 323 116.62 323 67.75 323 63.5 323 10.38 265.62 10.38"/><path class="cls-1" d="M546.92,450h-51.58c-74.65,0-187.05-50.64-133.73-166.96,0,0,55.12-108.02,62.33-252.27C424.8,13.52,439.12,0,456.39,0h0c17.13,0,31.48,15.44,33.22,35.75l8.88,54.67c4.17,25.68,41.11,25.68,45.28,0l8.88-54.67C554.39,15.44,568.74,0,585.87,0h0c17.28,0,31.6,13.52,32.46,30.78,7.21,144.25,62.33,252.27,62.33,252.27,53.32,116.32-59.09,166.96-133.73,166.96Zm-66.9-283.74c-7.34,0-13.28,5.95-13.28,13.28s5.95,13.28,13.28,13.28,13.28-5.95,13.28-13.28-5.95-13.28-13.28-13.28Zm34.68,0c-7.34,0-13.28,5.95-13.28,13.28s5.95,13.28,13.28,13.28,13.28-5.95,13.28-13.28-5.95-13.28-13.28-13.28Z"/></g></g></svg>